<?xml version="1.0" encoding="UTF-8"?> <!--Generator: Apple Native CoreSVG 232.5--> <!DOCTYPE svg PUBLIC "-//W3C//DTD SVG 1.1//EN" "http://www.w3.org/Graphics/SVG/1.1/DTD/svg11.dtd"> <svg version="1.1" xmlns="http://www.w3.org/2000/svg" xmlns:xlink="http://www.w3.org/1999/xlink" width="18.7973" height="19.1543"> <g> <rect height="19.1543" opacity="0" width="18.7973" x="0" y="0"/> <path d="M5.06992 14.0523C7.95195 16.9379 11.4412 19.1543 14.2914 19.1543C15.5705 19.1543 16.6933 18.7096 17.5943 17.7154C18.1207 17.1305 18.4359 16.4566 18.4359 15.7855C18.4359 15.2674 18.2363 14.7687 17.7474 14.4139L14.7424 12.2797C14.2773 11.9531 13.8797 11.7969 13.5228 11.7969C13.0711 11.7969 12.6654 12.056 12.2092 12.5025L11.5053 13.2002C11.3978 13.3076 11.2576 13.3564 11.1307 13.3564C10.9807 13.3564 10.8289 13.2978 10.7295 13.2437C10.1152 12.9109 9.06249 12.0064 8.08515 11.0371C7.11581 10.0678 6.21132 9.01503 5.88652 8.40078C5.83242 8.29335 5.77382 8.1496 5.77382 8.00136C5.77382 7.87265 5.81464 7.74043 5.92207 7.633L6.62773 6.91308C7.06621 6.45683 7.33339 6.05918 7.33339 5.59941C7.33339 5.24258 7.17538 4.85293 6.83456 4.37988L4.72441 1.40683C4.37128 0.909961 3.85488 0.696094 3.30469 0.696094C2.64609 0.696094 1.98027 0.985547 1.39883 1.54395C0.428711 2.4627 0 3.60156 0 4.86289C0 7.71308 2.18437 11.1783 5.06992 14.0523Z" fill="#000000"/> </g> </svg>