<?xml version="1.0" encoding="UTF-8"?>
<svg id="Layer_1" data-name="Layer 1" xmlns="http://www.w3.org/2000/svg" version="1.1" viewBox="0 0 1080 1080">
  <defs>
    <style>
      .cls-1 {
        fill: #000;
      }

      .cls-1, .cls-2 {
        stroke-width: 0px;
      }

      .cls-2 {
        fill: #fff;
      }
    </style>
  </defs>
  <path class="cls-2" d="M1056,1041.22H13V39h1043v1002.22ZM800.75,769.57c.83,1.08,1.66,2.17,2.48,3.25,5.69-3.33,11.16-7.14,17.14-9.84,3.98-1.79,8.67-2.01,13.04-2.93.43,5.55,3.27,12.73.83,16.34-7.32,10.83-15.74,21.36-25.57,29.91-8.85,7.7-19.58,14.31-33.07,11.39-1.47-7.64-5.91-16.22-3.39-21.46,2.8-5.85,12.23-8.3,18.11-13.04,1.84-1.49,1.55-5.61,2.24-8.53-9.85.78-10.55-10.32-17.31-13.39-7.89-3.58-9.42-7.6-2.96-14.39,4.07-4.28,4.01-11.54-2.7-10.62-6.48.89-13.16,6.72-17.74,12.09-2.02,2.37.9,8.98,1.63,13.65.47,2.99,1.05,5.96,1.58,8.93-3.3.3-8.06,2.14-9.64.63-7.05-6.69-12.77-3.48-19.07.75-6.81,4.57-14.35,8.14-20.78,13.17-24.04,18.78-51.03,23.71-80.56,18.85-2.09-.34-4.76,2.79-7.16,4.3,2.04,1.83,4.58,5.59,6.03,5.21,15.12-4.01,24.53,7.31,35.93,12.93,5.52,2.72,6.41,7.4,1.92,12.24-6.28,6.77-12.96,13.19-18.74,20.35-1.84,2.27-2.96,7.41-1.65,9.55,6.13,10.03,19.75,9.27,25.6-.75,1.96-3.35,5.21-6.04,6.77-9.53,3.95-8.87,14.97-15.62,8.84-27.9-.27-.54,3.64-3.61,5.95-4.86,2.79-1.52,8.09-1.8,8.55-3.58,1.66-6.48,2.78-12.48,10.85-13.76.77-.12,1.29-2.3,1.77-3.58,1.42-3.79,2.77-7.6,4.14-11.41,2.69,3.24,5.36,6.51,8.12,9.7.39.45,1.27.46,3.54,1.21,1.37-4.02,2.86-8.08,4.13-12.2,2.04-6.63,5.93-9.2,12.96-7.13,6.56,1.92,13.33,3.13,20.62,4.79-.35,14.54-13.39,29.6-32.46,29.23-13.5-.27-19.3,11.88-31.24,13.25,5.84,2.55,11.44,3.17,17.05,3.31,4.18.1,8.76-1.6,12.49-.42,8.04,2.56,14.4,1.68,20.46-4.48,2.26-2.3,6.71-4.86,9.16-4.09,7.7,2.41,14.93,6.35,23.03,10.01-9.15,6.48-17.64,16.64-27.62,18.4-9.98,1.76-20.85-2.8-27.48,8.91-13.94-3.14-20.82,11.16-32.73,13.42-2.32.44-4.48,4.32-5.77,7.06-3.74,8-9.31,11.4-18.47,11.24-5.93-.1-11.92,2.95-17.89,4.57-5.45,1.47-11.07,4.56-16.32,4.03-14.14-1.42-28.23-6.74-42.16-6.19-19.74.78-28.5-14.12-41.29-23.49-.28-.2.12-1.33.22-2.02,4.88-2.53,9.71-5.14,14.65-7.56,6.93-3.4,13.63-7.99,20.98-9.65,9.62-2.18,19.77-2.4,29.71-2.72,8.29-.27,11.73-3.91,8.41-11.41-3.57-8.07-7.13-17.02-13.33-22.72-3.84-3.53-17.53-3.85-18.33-1.99-5.9,13.79-15.34,8.08-24.37,6.29-19.44-3.85-38.78-8.64-58.4-11.04-16.66-2.04-33.88.21-49.26-9.05-1.35-.81-4.7.44-6.24,1.77-.72.62.2,4.05,1.27,5.56,1.16,1.63,3.33,2.59,5.14,3.7,6.69,4.07,10.42,8.7,4.46,16.42-1.25,1.62-1.75,6.15-.88,6.73,8.86,5.87,17.88,15.4,27.22,15.82,20.21.9,29.84,17.54,45.32,24.86.65.31.98,1.96.95,2.96-.32,10.69,1.04,20.24,15.3,20.64-6.89,10.54-15.69,11.59-27.72,5.33-4.57-2.38-9.5-4.43-14.51-5.55-16.66-3.7-33.73-5.91-50-10.8-6.21-1.87-10.71-9.44-15.99-14.41,3.66-3.64,7.45-7.16,10.95-10.94,7.9-8.52,6.07-15.69-4.65-20.84-6.72-3.23-13.32-6.88-19.45-11.11-2.58-1.78-3.81-5.51-5.65-8.35,3.06-1.18,6.06-2.64,9.21-3.48,4.07-1.08,8.52-1.11,12.26-2.8,1.18-.53,1.42-7,.72-7.27-18.64-7.34-28.22-28.83-49.59-31.85-1.51-.21-3.02-1.84-4.15-3.14-7.69-8.92-19.67-15.53-16.54-30.41.12-.57-1.32-1.47-2.81-3.04-10.81,8.58-18.16,4.98-23.99-6.84-2.2-4.47-7.86-7.12-11.4-11.09-5.42-6.07-10.58-12.4-15.44-18.93-4.84-6.51-8.85-13.66-13.8-20.07-4.7-6.09-9.92-5.29-12.83-2.28,3.56,10.77,6.23,19.56,9.38,28.17,2.66,7.26,4.49,15.43,9.13,21.24,10.17,12.72,21.74,24.34,33.04,36.13,6.77,7.06,14.32,13.38,21.1,20.42,9.23,9.59,20.45,16.76,25.65,30.84,3.06,8.29,13.47,14.51,21.65,20.08,8.41,5.73,16.09,10.48,12.35,22.6-.5,1.62,2.45,4.11,3.27,6.39.72,2.01,1.53,4.68.75,6.32-.57,1.2-4.04,2.19-5.56,1.59-13.44-5.27-27.93-9.08-39.8-16.85-22.63-14.8-44.22-31.35-65.29-48.34-10.04-8.09-16.83-20.3-27.04-28.09-15.85-12.1-21.85-30.36-32-45.94-2.03-3.11-.18-12.02,2.9-14.5,6.07-4.87,7.76-8.14,2.93-14.7-1.88-2.55-1.36-6.81-2.12-10.24-.68-3.09-1.62-6.12-2.44-9.17-5.04,5.78-6.89,11.77-9.79,17.2-1.64,3.07-5,7.26-7.59,7.26-2.96,0-7.37-3.48-8.62-6.5-3.92-9.5-6.38-19.59-9.9-29.27-7.55-20.72-14.22-41.47-10.79-64.07,3.51-23.13.26-44.96-11.19-65.87-2.43-4.43.67-12.06,1.68-18.14,1.18-7.07,5.2-14.53,3.89-20.98-3.76-18.49,5.78-33.15,11.53-48.93.66-1.81,3.77-3.05,6-3.9,11.23-4.3,22.55-8.37,34.54-12.79-1.13-2.8-2.36-5.85-4.04-10.02,8.21-6.77,16.3-13.68,24.64-20.27,8.39-6.62,10.51-15.28,10-26.31-14.16,1.05-20.42,11.01-26.52,20.24-4.88,7.39-9.5,8.2-17.77,5.5-9.93-3.24-3.16-9.84-4.95-14.38-5.69-14.4,2.75-24.25,10.27-33.86,6.37-8.15,14.16-14.99,26.72-10.01,3.49,1.39,9.29-1.56,13.46-3.65,8.64-4.35,16.38-11.23,25.42-13.87,16.21-4.73,26.51-15.11,37-30.44-8.01,0-13.66-.64-19.11.15-8.83,1.27-17.52,3.48-27.77,5.6-2.93,2.94-7.27,8.46-12.8,12.22-2.13,1.45-7.25-.59-10.5-2.13-1.38-.65-2.63-5.39-1.88-6.1,7.45-7.03,14.4-15.47,23.28-19.92,20.44-10.24,41.87-18.51,62.94-27.5,4.22-1.8,8.76-4.96,12.87-4.57,15.95,1.54,19.15-13.13,27.89-20.63,6.75-5.78,12.38-13.81,20.1-17.28,10.18-4.57,21.99-5.39,32.97-8.33,8.56-2.3,17.17-8.19,25.27-7.4,9.59.93,14.26-1.3,16.85-10.95,6.55,6.29,12.46,7.88,18.97,1.72,1.28-1.21,4.73-.21,7.17-.06,10.29.62,20.57,1.31,30.86,1.96,3.17.2,6.8-.54,9.44.75,9.47,4.61,18.6,9.9,23.82,12.75,4.42-2.37,8.24-6.21,11.63-5.86,8.27.85,16.56,3,24.43,5.79,12.49,4.42,25.84,7.93,32.88,21.09.41.76,1.85.98,2.82,1.43,18.39,8.49,39.04,12.87,53.11,29.21.22.25.6.43.94.49,16.82,3.05,21.14,20.9,33.98,29.38,5.84,3.85,13.75,5.77,17.86,10.98,9.83,12.46,17.95,26.26,27.05,39.32,6.39,9.18,11.86,18.38,10.35,30.34-.3,2.37,2.01,5.25,3.53,7.64,16.99,26.7,20.68,56.46,20.75,87.22.01,5.2,1.43,14,4.11,14.82,5.27,1.6,13.5.7,17.6-2.68,7.42-6.12,14.08-12.09,23.94-14.43,2.95-.7,5.65-7.02,6.5-11.17,2.57-12.57,4.43-25.3,6.11-38.03,3.4-25.65,4.82-51.41-4.27-76.19-3.69-10.06-9.34-18.98-4.42-30.39,1.26-2.93-.37-8.01-2.21-11.22-10.97-19.1-20.44-39.48-34.01-56.57-41.31-52.05-96.56-87.42-155.82-113.94-67.11-30.03-138.87-43.48-213.14-32.88-47.92,6.84-97,9.5-138.62,39.43-20.77,14.94-43.67,26.96-64.16,42.24-46.71,34.84-83.46,79.06-110.94,130.04-29.63,54.97-48.02,113.9-52.27,176.79-4.45,65.75,0,130.52,21.41,193.26,17.65,51.69,43.64,99.05,78.13,141.49,4.46,5.48,11.62,8.69,17.18,13.38,3.03,2.56,5.69,5.78,7.84,9.14,3.15,4.92,4.6,11.44,8.7,15.14,16.4,14.79,33,29.49,50.63,42.75,10.91,8.21,20.99,19.8,37.32,17.47,2.01-.29,4.55,1.84,6.59,3.23,5.01,3.4,9.84,7.05,14.78,10.55,25.92,18.39,53.12,33.49,86.04,34.69,3.28.12,6.56,2.39,9.69,3.98,14.99,7.62,29.79,15.6,47.7,11.98,3.3-.67,7.08.34,10.52,1.13,73.98,16.87,145.8,8.12,214.79-21.27,64.51-27.48,125.57-60.63,168.01-119.83,11.39-15.89,25.6-29.72,37.75-45.11,3.61-4.58,4.54-11.26,6.79-16.94,1.35-3.41,2.03-7.69,4.5-9.97,10.91-10.09,10.59-18.04-1.68-26.04-1.64-1.07-2.98-2.6-6.64-5.86,5.8-.39,9.19-.15,12.3-.96,3.61-.94,8.64-1.83,10.15-4.44,6.06-10.4,12.28-21.03,16.01-32.38,4.04-12.29.06-15.84-12.92-14.83-9.61.75-11.95-1.88-8.7-11.07,2-5.67,4.51-11.44,8.04-16.25,12.07-16.48,12.04-34.05,5.93-52.47-11.72-.64-11.34-.57-9.16-12.16.6-3.18-.78-8.48-3.09-9.97-2.32-1.5-8.5-.84-10.27,1.22-11.42,13.29-24.16,25.94-26.53,44.77-.43,3.44-2.07,7.72-4.62,9.73-7.86,6.19-7.92,10.23.37,15.59,2.57,1.66,6.23,5.3,5.78,7.14-.78,3.16-4.06,6.08-6.95,8.22-2.16,1.6-5.41,1.63-8.06,2.65-16.87,6.47-24.45,17.82-24.02,35.63.03,1.38-.3,2.86-.84,4.13-3.61,8.52-24.31,17.72-33.25,15.51-3.44-.85-8.51-1.11-10.91.79-11.74,9.29-22.91,19.3-34.06,29.3-1.83,1.64-2.55,4.53-3.78,6.85ZM739.54,533.59s.05,0,.07,0c0-31.77.26-63.54-.07-95.31-.38-36.59-24.85-66.03-61.29-67.34-63.07-2.26-126.26-1.3-189.41-1.16-17.84.04-34.27,5.19-48.17,17.56-19.28,17.15-22.43,40.14-22.69,63.45-.64,57.47.25,114.96-.28,172.44-.12,13.43,3.28,25.4,8.89,36.93,10.51,21.59,28.06,34.1,52.01,35.97,19.18,1.5,38.49,1.97,57.75,1.92,44.61-.12,89.22-.8,133.82-1.31,39.87-.46,68.82-29.03,69.28-68.91.37-31.41.07-62.82.07-94.23ZM256.94,604.54c10.37,3.49,12.11,7.84,4.69,14.72-8.67,8.05-6.42,18.37-7.67,27.9-.16,1.25,6.7,5.46,8.78,4.6,7.67-3.18,10.5,1.2,13.26,6.54,1.46,2.84,2.53,5.89,3.9,8.78q8,16.84,22.42,4.39c1.34-1.15,3.3-1.78,4.26-3.14,1.83-2.59,3.16-5.55,4.7-8.35-3.13.34-6.99-.35-9.24,1.23-6.8,4.78-11.68,2.09-13.17-4.24-2.46-10.45-3.96-21.3-4.26-32.03-.34-12.37,1.19-24.79,1.68-37.19.26-6.55.05-13.13.05-20.2-17.59-2.83-24.54,5.07-29.4,37ZM833.89,693.61c-13.59,3.22-24.93,4.42-34.87,8.8-6.17,2.72-10.42,10.09-15.13,15.71-1.99,2.38-2.97,5.61-4.41,8.46,3.85.26,7.84,1.22,11.52.55,2.91-.53,5.34-3.34,8.19-4.68,5.43-2.56,10.86-6.24,16.56-6.85,9.34-.99,16.9-3.84,20.53-12.66.97-2.36-1.49-6.13-2.4-9.32ZM326.2,763.25c3.39,14.49,5.88,27.57,9.77,40.22,1.15,3.75,5.8,7.2,9.67,9.16,7.72,3.91,17.49-3.2,13.85-10.49-6.46-12.95-15.79-24.51-24.37-36.34-1.2-1.66-4.92-1.49-8.93-2.55ZM257.82,522.84c-11.65-5.68-24.55-1.97-25.95,7.84-.53,3.69,2.67,7.92,4.17,11.9,3.26-1.3,7.37-1.77,9.61-4.07,4.57-4.68,8.14-10.35,12.17-15.67ZM843.29,623.26c17.12-8.7,19.85-25.42,6.9-36.88-2.28,12.19-4.41,23.59-6.9,36.88ZM906.7,655.21c-5.54-3.03-10.24-6.06-10.53-5.68-3.78,4.89-7.12,10.17-9.98,15.66-.28.53,4.7,4.72,4.97,4.49,4.75-3.96,9.15-8.34,15.54-14.46ZM944.3,576.6c.89.37,1.77.74,2.66,1.11,1.53-1.65,3.92-3.07,4.43-4.99,1.11-4.24,1.38-8.71,1.66-13.11.03-.45-3.3-1.56-3.33-1.5-1.92,3.86-3.93,7.72-5.3,11.8-.67,2.02-.12,4.45-.12,6.69ZM275.11,731.18c3.43,3.18,5.41,6.44,7.69,6.66,1.74.17,5.4-3.52,5.4-5.48,0-2.34-2.67-6-4.85-6.58-1.75-.47-4.5,2.8-8.24,5.41ZM261.92,460.34c-2.04.01-4.09.03-6.13.04.21,4.72.36,9.44.87,14.13.02.2,3.43.03,5.25.04v-14.21ZM852.23,561.33c-1.78.09-3.57.18-5.35.27.44,4.88.88,9.76,1.32,14.64,1.34-.08,2.69-.15,4.03-.23v-14.68Z"/>
  <path class="cls-1" d="M800.75,769.57c1.23-2.31,1.95-5.2,3.78-6.85,11.15-10.01,22.32-20.02,34.06-29.3,2.4-1.9,7.46-1.64,10.91-.79,8.94,2.2,29.63-6.99,33.25-15.51.54-1.27.87-2.76.84-4.13-.43-17.81,7.15-29.16,24.02-35.63,2.65-1.02,5.91-1.05,8.06-2.65,2.89-2.14,6.17-5.06,6.95-8.22.45-1.84-3.21-5.48-5.78-7.14-8.28-5.36-8.22-9.4-.37-15.59,2.56-2.02,4.19-6.29,4.62-9.73,2.37-18.83,15.12-31.48,26.53-44.77,1.77-2.06,7.95-2.72,10.27-1.22,2.31,1.49,3.69,6.79,3.09,9.97-2.18,11.6-2.56,11.53,9.16,12.16,6.11,18.42,6.14,35.99-5.93,52.47-3.53,4.81-6.03,10.58-8.04,16.25-3.24,9.19-.91,11.82,8.7,11.07,12.98-1.01,16.96,2.54,12.92,14.83-3.73,11.35-9.95,21.98-16.01,32.38-1.52,2.6-6.55,3.5-10.15,4.44-3.11.81-6.5.56-12.3.96,3.66,3.26,5,4.79,6.64,5.86,12.27,8,12.59,15.96,1.68,26.04-2.47,2.28-3.14,6.56-4.5,9.97-2.25,5.68-3.18,12.36-6.79,16.94-12.14,15.39-26.36,29.22-37.75,45.11-42.44,59.2-103.51,92.35-168.01,119.83-68.99,29.39-140.81,38.14-214.79,21.27-3.44-.78-7.22-1.79-10.52-1.13-17.91,3.62-32.71-4.35-47.7-11.98-3.12-1.59-6.41-3.86-9.69-3.98-32.91-1.21-60.12-16.31-86.04-34.69-4.94-3.5-9.78-7.15-14.78-10.55-2.04-1.39-4.58-3.52-6.59-3.23-16.33,2.33-26.41-9.26-37.32-17.47-17.63-13.26-34.22-27.96-50.63-42.75-4.1-3.7-5.55-10.23-8.7-15.14-2.15-3.36-4.81-6.57-7.84-9.14-5.55-4.69-12.72-7.9-17.18-13.38-34.49-42.44-60.49-89.8-78.13-141.49-21.42-62.74-25.86-127.5-21.41-193.26,4.25-62.89,22.64-121.82,52.27-176.79,27.48-50.98,64.23-95.2,110.94-130.04,20.49-15.28,43.39-27.3,64.16-42.24,41.63-29.93,90.71-32.59,138.62-39.43,74.27-10.6,146.02,2.84,213.14,32.88,59.26,26.52,114.51,61.89,155.82,113.94,13.57,17.1,23.05,37.48,34.01,56.57,1.84,3.21,3.47,8.29,2.21,11.22-4.92,11.41.73,20.33,4.42,30.39,9.1,24.78,7.67,50.54,4.27,76.19-1.69,12.73-3.54,25.46-6.11,38.03-.85,4.15-3.55,10.47-6.5,11.17-9.86,2.34-16.52,8.31-23.94,14.43-4.1,3.38-12.33,4.28-17.6,2.68-2.69-.82-4.1-9.62-4.11-14.82-.07-30.76-3.77-60.52-20.75-87.22-1.52-2.38-3.83-5.27-3.53-7.64,1.51-11.96-3.96-21.17-10.35-30.34-9.1-13.06-17.21-26.86-27.05-39.32-4.11-5.21-12.02-7.13-17.86-10.98-12.85-8.48-17.16-26.33-33.98-29.38-.33-.06-.72-.24-.94-.49-14.08-16.34-34.72-20.72-53.11-29.21-.97-.45-2.41-.67-2.82-1.43-7.04-13.17-20.38-16.67-32.88-21.09-7.87-2.79-16.17-4.94-24.43-5.79-3.39-.35-7.21,3.5-11.63,5.86-5.23-2.84-14.36-8.14-23.82-12.75-2.64-1.29-6.27-.55-9.44-.75-10.29-.66-20.57-1.34-30.86-1.96-2.44-.15-5.9-1.14-7.17.06-6.52,6.16-12.42,4.57-18.97-1.72-2.59,9.64-7.26,11.87-16.85,10.95-8.1-.78-16.71,5.11-25.27,7.4-10.97,2.95-22.79,3.76-32.97,8.33-7.73,3.47-13.36,11.49-20.1,17.28-8.75,7.5-11.95,22.16-27.89,20.63-4.11-.4-8.65,2.76-12.87,4.57-21.06,8.99-42.49,17.26-62.94,27.5-8.89,4.45-15.83,12.89-23.28,19.92-.75.7.51,5.44,1.88,6.1,3.24,1.54,8.36,3.57,10.5,2.13,5.53-3.75,9.87-9.28,12.8-12.22,10.25-2.12,18.94-4.33,27.77-5.6,5.45-.78,11.1-.15,19.11-.15-10.49,15.33-20.79,25.71-37,30.44-9.04,2.64-16.78,9.52-25.42,13.87-4.17,2.1-9.96,5.04-13.46,3.65-12.57-4.98-20.35,1.86-26.72,10.01-7.51,9.6-15.96,19.46-10.27,33.86,1.8,4.54-4.98,11.14,4.95,14.38,8.27,2.7,12.9,1.89,17.77-5.5,6.1-9.23,12.36-19.19,26.52-20.24.51,11.03-1.61,19.69-10,26.31-8.34,6.58-16.43,13.49-24.64,20.27,1.68,4.18,2.91,7.22,4.04,10.02-12,4.42-23.31,8.5-34.54,12.79-2.23.85-5.34,2.1-6,3.9-5.76,15.78-15.3,30.44-11.53,48.93,1.31,6.46-2.71,13.91-3.89,20.98-1.01,6.08-4.11,13.72-1.68,18.14,11.45,20.91,14.7,42.74,11.19,65.87-3.42,22.59,3.25,43.35,10.79,64.07,3.53,9.68,5.98,19.77,9.9,29.27,1.25,3.02,5.66,6.51,8.62,6.5,2.59,0,5.95-4.19,7.59-7.26,2.9-5.43,4.74-11.43,9.79-17.2.82,3.06,1.76,6.09,2.44,9.17.76,3.44.25,7.7,2.12,10.24,4.83,6.57,3.14,9.83-2.93,14.7-3.08,2.47-4.92,11.38-2.9,14.5,10.15,15.58,16.15,33.84,32,45.94,10.21,7.79,17,19.99,27.04,28.09,21.08,16.99,42.66,33.54,65.29,48.34,11.88,7.77,26.37,11.58,39.8,16.85,1.52.6,4.99-.39,5.56-1.59.78-1.64-.02-4.31-.75-6.32-.82-2.28-3.77-4.77-3.27-6.39,3.75-12.12-3.93-16.87-12.35-22.6-8.18-5.57-18.59-11.79-21.65-20.08-5.19-14.07-16.42-21.25-25.65-30.84-6.79-7.05-14.34-13.36-21.1-20.42-11.29-11.79-22.87-23.41-33.04-36.13-4.64-5.81-6.47-13.98-9.13-21.24-3.15-8.61-5.82-17.4-9.38-28.17,2.91-3.01,8.13-3.81,12.83,2.28,4.96,6.42,8.96,13.56,13.8,20.07,4.85,6.53,10.02,12.86,15.44,18.93,3.54,3.97,9.2,6.62,11.4,11.09,5.82,11.82,13.17,15.42,23.99,6.84,1.49,1.57,2.93,2.47,2.81,3.04-3.13,14.87,8.85,21.49,16.54,30.41,1.12,1.3,2.64,2.93,4.15,3.14,21.37,3.02,30.94,24.5,49.59,31.85.7.28.46,6.74-.72,7.27-3.74,1.69-8.19,1.72-12.26,2.8-3.16.84-6.15,2.3-9.21,3.48,1.84,2.84,3.07,6.58,5.65,8.35,6.13,4.22,12.73,7.88,19.45,11.11,10.72,5.15,12.56,12.32,4.65,20.84-3.51,3.78-7.29,7.3-10.95,10.94,5.28,4.97,9.78,12.55,15.99,14.41,16.28,4.89,33.34,7.1,50,10.8,5.01,1.11,9.94,3.17,14.51,5.55,12.03,6.26,20.83,5.22,27.72-5.33-14.26-.4-15.62-9.95-15.3-20.64.03-1.01-.3-2.65-.95-2.96-15.48-7.32-25.11-23.96-45.32-24.86-9.34-.42-18.37-9.95-27.22-15.82-.88-.58-.38-5.11.88-6.73,5.96-7.72,2.23-12.35-4.46-16.42-1.82-1.1-3.98-2.07-5.14-3.7-1.08-1.51-1.99-4.95-1.27-5.56,1.54-1.32,4.89-2.58,6.24-1.77,15.38,9.26,32.6,7.01,49.26,9.05,19.63,2.4,38.96,7.19,58.4,11.04,9.04,1.79,18.47,7.5,24.37-6.29.8-1.86,14.49-1.54,18.33,1.99,6.2,5.7,9.75,14.65,13.33,22.72,3.32,7.5-.12,11.14-8.41,11.41-9.94.32-20.09.54-29.71,2.72-7.35,1.66-14.05,6.25-20.98,9.65-4.93,2.42-9.77,5.03-14.65,7.56-.09.69-.49,1.82-.21,2.02,12.79,9.37,21.55,24.27,41.29,23.49,13.94-.55,28.02,4.77,42.16,6.19,5.25.53,10.88-2.56,16.32-4.03,5.97-1.61,11.95-4.67,17.89-4.57,9.16.16,14.73-3.25,18.47-11.24,1.28-2.74,3.45-6.63,5.77-7.06,11.91-2.26,18.79-16.56,32.73-13.42,6.64-11.71,17.51-7.15,27.48-8.91,9.98-1.76,18.47-11.92,27.62-18.4-8.1-3.66-15.33-7.6-23.03-10.01-2.45-.77-6.9,1.79-9.16,4.09-6.06,6.16-12.42,7.04-20.46,4.48-3.73-1.19-8.31.52-12.49.42-5.61-.14-11.21-.76-17.05-3.31,11.94-1.37,17.74-13.51,31.24-13.25,19.07.38,32.11-14.68,32.46-29.23-7.28-1.66-14.06-2.87-20.62-4.79-7.03-2.06-10.92.51-12.96,7.13-1.27,4.12-2.76,8.18-4.13,12.2-2.26-.75-3.15-.76-3.54-1.21-2.76-3.18-5.42-6.45-8.12-9.7-1.37,3.81-2.72,7.62-4.14,11.41-.48,1.28-1.01,3.46-1.77,3.58-8.08,1.28-9.19,7.29-10.85,13.76-.46,1.78-5.76,2.07-8.55,3.58-2.31,1.26-6.22,4.33-5.95,4.86,6.13,12.29-4.89,19.03-8.84,27.9-1.55,3.49-4.8,6.17-6.77,9.53-5.86,10.01-19.47,10.77-25.6.75-1.31-2.14-.18-7.27,1.65-9.55,5.78-7.16,12.47-13.59,18.74-20.35,4.49-4.84,3.6-9.52-1.92-12.24-11.41-5.62-20.81-16.95-35.93-12.93-1.45.38-3.99-3.37-6.03-5.21,2.4-1.52,5.07-4.65,7.16-4.3,29.53,4.85,56.52-.07,80.56-18.85,6.43-5.02,13.97-8.6,20.78-13.17,6.31-4.23,12.02-7.44,19.07-.75,1.59,1.51,6.35-.33,9.64-.63-.53-2.98-1.11-5.95-1.58-8.93-.74-4.67-3.65-11.29-1.63-13.65,4.58-5.37,11.26-11.2,17.74-12.09,6.71-.92,6.77,6.34,2.7,10.62-6.46,6.78-4.93,10.81,2.96,14.39,6.76,3.07,7.46,14.16,17.31,13.39-.69,2.92-.4,7.05-2.24,8.53-5.88,4.74-15.31,7.19-18.11,13.04-2.51,5.25,1.92,13.82,3.39,21.46,13.5,2.92,24.22-3.69,33.07-11.39,9.82-8.54,18.25-19.08,25.57-29.91,2.44-3.61-.4-10.79-.83-16.34-4.37.92-9.06,1.13-13.04,2.93-5.98,2.7-11.45,6.5-17.14,9.84-.83-1.08-1.66-2.17-2.48-3.25ZM150.72,597.64c-.98.2-1.97.4-2.95.61,2.9,11.61,5.49,23.3,8.79,34.79,3.73,12.97,8.59,25.62,12,38.67,1.89,7.23,4.42,14.65,12.46,12.72,8.81-2.13,5.15-10.94,4.74-17.37-.06-.99-.87-1.93-1.32-2.9-13.47-29.25-21.74-59.92-24.99-91.95-.46-4.53-.85-9.08-1.03-13.62-.17-4.41.03-8.84-.05-13.26-.07-3.6.38-7.46-.84-10.66-.48-1.27-6.3-2.29-7.16-1.28-2.46,2.89-5.27,7-5.02,10.42,1.29,17.98,3.49,35.89,5.37,53.83ZM549.66,865.83c7.55.28,13.84-5.88,12.55-12.29-2.13-10.57-20.05-24.74-31.02-24.51-9.26.19-18.84,9.31-14.67,14.14,8.91,10.31,18.31,20.67,33.13,22.65ZM194.29,725.84c3.83,7.99,6.53,15.37,10.66,21.84,8.02,12.55,16.67,24.72,25.49,36.74,1.7,2.32,5.38,3.19,8.15,4.73-.35-3.39.15-7.19-1.22-10.1-4.64-9.82-10.18-19.21-14.94-28.97-4.51-9.25-8.2-18.92-12.9-28.07-1.15-2.25-5.63-5.05-7.16-4.37-3.02,1.33-5.05,4.92-8.08,8.21ZM166.24,485.61c-.42-.09-.84-.18-1.26-.26,0-3.9.61-7.94-.18-11.68-.72-3.37-2.97-6.42-4.55-9.61-2.6,2.84-6.84,5.35-7.51,8.59-2.85,13.81-5.1,27.8-6.52,41.82-.36,3.56,3.14,7.52,4.87,11.29,3.04-3.01,7.76-5.53,8.8-9.11,2.93-10.11,4.34-20.66,6.35-31.04ZM174.31,401.61c1.6.91,3.21,1.81,4.81,2.72,5.36-9.27,10.73-18.54,16.09-27.81-1.24-.74-2.48-1.48-3.73-2.23-5.24,9.41-19.39,13.18-17.18,27.31Z"/>
  <path class="cls-1" d="M739.54,533.59c0,31.41.29,62.82-.07,94.23-.46,39.88-29.41,68.45-69.28,68.91-44.61.51-89.21,1.19-133.82,1.31-19.25.05-38.56-.42-57.75-1.92-23.95-1.87-41.51-14.38-52.01-35.97-5.61-11.54-9.01-23.51-8.89-36.93.53-57.47-.36-114.96.28-172.44.26-23.31,3.41-46.3,22.69-63.45,13.9-12.37,30.33-17.52,48.17-17.56,63.14-.15,126.34-1.1,189.41,1.16,36.44,1.31,60.91,30.76,61.29,67.34.33,31.77.07,63.54.07,95.31-.02,0-.05,0-.07,0ZM575.73,398.14s0,.08,0,.12c-31.39,0-62.78-.39-94.16.13-22.39.37-38.72,14.7-40.4,36.23-1.65,21.23-1.71,42.6-1.84,63.92-.24,39.91-.28,79.83.2,119.74.1,8.75.99,18.22,4.46,26.06,7.76,17.54,23.08,24.18,41.72,24.18,59.21-.01,118.41,0,177.62.08,30.68.05,47.2-15.54,47.38-46.25.34-59.57.33-119.15.09-178.72-.12-29.3-16.84-45.39-46.27-45.46-29.6-.07-59.21-.01-88.81-.01Z"/>
  <path class="cls-1" d="M256.94,604.54c4.86-31.94,11.8-39.84,29.4-37,0,7.08.21,13.65-.05,20.2-.49,12.41-2.02,24.82-1.68,37.19.29,10.73,1.8,21.58,4.26,32.03,1.49,6.33,6.37,9.02,13.17,4.24,2.26-1.58,6.12-.89,9.24-1.23-1.54,2.8-2.86,5.76-4.7,8.35-.97,1.37-2.92,1.99-4.26,3.14q-14.42,12.44-22.42-4.39c-1.37-2.89-2.44-5.94-3.9-8.78-2.75-5.34-5.58-9.72-13.26-6.54-2.08.86-8.95-3.35-8.78-4.6,1.25-9.53-1-19.85,7.67-27.9,7.42-6.88,5.68-11.24-4.69-14.72Z"/>
  <path class="cls-1" d="M833.89,693.61c.91,3.19,3.37,6.96,2.4,9.32-3.63,8.83-11.19,11.67-20.53,12.66-5.71.6-11.13,4.29-16.56,6.85-2.85,1.35-5.28,4.15-8.19,4.68-3.68.68-7.67-.29-11.52-.55,1.44-2.84,2.41-6.08,4.41-8.46,4.71-5.62,8.96-12.99,15.13-15.71,9.94-4.38,21.28-5.58,34.87-8.8Z"/>
  <path class="cls-1" d="M326.2,763.25c4.01,1.06,7.73.9,8.93,2.55,8.57,11.82,17.9,23.38,24.37,36.34,3.64,7.29-6.14,14.4-13.85,10.49-3.87-1.96-8.52-5.41-9.67-9.16-3.89-12.65-6.38-25.73-9.77-40.22Z"/>
  <path class="cls-1" d="M257.82,522.84c-4.03,5.32-7.6,10.98-12.17,15.67-2.24,2.3-6.35,2.77-9.61,4.07-1.5-3.98-4.7-8.21-4.17-11.9,1.4-9.8,14.3-13.51,25.95-7.84Z"/>
  <path class="cls-1" d="M843.29,623.26c2.49-13.29,4.62-24.69,6.9-36.88,12.95,11.46,10.21,28.18-6.9,36.88Z"/>
  <path class="cls-1" d="M906.7,655.21c-6.39,6.12-10.79,10.5-15.54,14.46-.28.23-5.25-3.95-4.97-4.49,2.86-5.49,6.19-10.77,9.98-15.66.29-.38,4.99,2.66,10.53,5.68Z"/>
  <path class="cls-1" d="M944.3,576.6c0-2.24-.56-4.68.12-6.69,1.36-4.08,3.38-7.94,5.3-11.8.03-.06,3.36,1.05,3.33,1.5-.27,4.4-.55,8.88-1.66,13.11-.5,1.92-2.89,3.34-4.43,4.99-.89-.37-1.77-.74-2.66-1.11Z"/>
  <path class="cls-1" d="M275.11,731.18c3.74-2.61,6.49-5.87,8.24-5.41,2.18.58,4.84,4.24,4.85,6.58,0,1.96-3.66,5.65-5.4,5.48-2.28-.22-4.26-3.48-7.69-6.66Z"/>
  <path class="cls-1" d="M261.92,460.34v14.21c-1.83,0-5.23.16-5.25-.04-.51-4.68-.66-9.41-.87-14.13,2.04-.01,4.09-.03,6.13-.04Z"/>
  <path class="cls-1" d="M852.23,561.33v14.68c-1.34.08-2.69.15-4.03.23-.44-4.88-.88-9.76-1.32-14.64,1.78-.09,3.57-.18,5.35-.27Z"/>
  <path class="cls-2" d="M150.72,597.64c-1.88-17.94-4.08-35.85-5.37-53.83-.25-3.42,2.56-7.53,5.02-10.42.86-1.01,6.68.01,7.16,1.28,1.22,3.2.77,7.06.84,10.66.08,4.42-.12,8.84.05,13.26.18,4.55.57,9.09,1.03,13.62,3.24,32.03,11.52,62.7,24.99,91.95.45.97,1.25,1.91,1.32,2.9.41,6.43,4.07,15.24-4.74,17.37-8.03,1.94-10.57-5.48-12.46-12.72-3.41-13.04-8.27-25.7-12-38.67-3.3-11.49-5.89-23.19-8.79-34.79.98-.2,1.97-.4,2.95-.61Z"/>
  <path class="cls-2" d="M549.66,865.83c-14.82-1.99-24.23-12.34-33.13-22.65-4.17-4.83,5.4-13.95,14.67-14.14,10.97-.23,28.89,13.93,31.02,24.51,1.29,6.41-5,12.57-12.55,12.29Z"/>
  <path class="cls-2" d="M194.29,725.84c3.03-3.3,5.06-6.88,8.08-8.21,1.53-.67,6.01,2.12,7.16,4.37,4.7,9.15,8.38,18.81,12.9,28.07,4.76,9.76,10.3,19.15,14.94,28.97,1.38,2.91.87,6.71,1.22,10.1-2.77-1.54-6.45-2.41-8.15-4.73-8.82-12.01-17.47-24.18-25.49-36.74-4.13-6.47-6.83-13.85-10.66-21.84Z"/>
  <path class="cls-2" d="M166.24,485.61c-2.01,10.38-3.43,20.93-6.35,31.04-1.04,3.59-5.76,6.11-8.8,9.11-1.73-3.77-5.23-7.73-4.87-11.29,1.42-14.03,3.67-28.01,6.52-41.82.67-3.24,4.91-5.75,7.51-8.59,1.58,3.19,3.83,6.24,4.55,9.61.79,3.74.18,7.77.18,11.68.42.09.84.18,1.26.26Z"/>
  <path class="cls-2" d="M174.31,401.61c-2.21-14.13,11.94-17.9,17.18-27.31,1.24.74,2.48,1.48,3.73,2.23-5.36,9.27-10.73,18.54-16.09,27.81-1.6-.91-3.21-1.81-4.81-2.72Z"/>
  <path class="cls-2" d="M575.73,398.14c29.6,0,59.21-.05,88.81.01,29.42.07,46.15,16.15,46.27,45.46.24,59.57.25,119.15-.09,178.72-.18,30.72-16.7,46.3-47.38,46.25-59.21-.09-118.41-.09-177.62-.08-18.65,0-33.96-6.64-41.72-24.18-3.47-7.84-4.36-17.3-4.46-26.06-.47-39.91-.44-79.83-.2-119.74.13-21.31.19-42.69,1.84-63.92,1.68-21.53,18-35.86,40.4-36.23,31.38-.52,62.77-.13,94.16-.13,0-.04,0-.08,0-.12ZM576.2,619.01c48.06-.22,85.89-37.9,85.8-85.43-.1-48.43-38.08-85.96-86.75-85.71-46.29.23-78.6,36.14-78.36,87.09.23,48.89,33.61,84.26,79.31,84.05ZM651.54,445.1c-.04,11.98,6.38,19.5,16.54,19.37,11.28-.14,19.92-9.28,19.73-20.85-.17-10.15-9.06-19.37-18.85-19.56-10.68-.2-17.37,7.88-17.42,21.04Z"/>
  <path class="cls-1" d="M576.2,619.01c-45.7.21-79.08-35.16-79.31-84.05-.24-50.95,32.07-86.85,78.36-87.09,48.67-.25,86.65,37.28,86.75,85.71.09,47.53-37.74,85.2-85.8,85.43ZM520.23,532.71c-1.55,36.34,30.97,56.23,58.53,56.41,29.06.19,54.9-25.84,54.58-55.01-.35-31.56-24.62-56.42-55.21-56.55-31.69-.14-57.95,24.87-57.91,55.15Z"/>
  <path class="cls-1" d="M651.54,445.1c.05-13.16,6.74-21.24,17.42-21.04,9.79.18,18.68,9.41,18.85,19.56.19,11.57-8.45,20.71-19.73,20.85-10.16.13-16.59-7.39-16.54-19.37Z"/>
  <path class="cls-2" d="M520.23,532.71c-.05-30.28,26.22-55.29,57.91-55.15,30.59.13,54.86,25,55.21,56.55.32,29.16-25.52,55.2-54.58,55.01-27.56-.18-60.08-20.07-58.53-56.41Z"/>
</svg>