<?xml version="1.0" encoding="UTF-8"?>
<svg id="Layer_1" data-name="Layer 1" xmlns="http://www.w3.org/2000/svg" version="1.1" viewBox="0 0 1080 1080">
  <defs>
    <style>
      .cls-1 {
        fill: #000;
      }

      .cls-1, .cls-2 {
        stroke-width: 0px;
      }

      .cls-2 {
        fill: #fff;
      }
    </style>
  </defs>
  <path class="cls-2" d="M1056.5,1061.26H23.5V32.69h1033v1028.57ZM544.89,900.45c4.04-1.55,6.85-2.42,9.46-3.67,8.8-4.22,17.15-10.03,26.4-12.46,9.42-2.47,19.69-1.7,29.6-2.29,9.4-.56,11.81-4.33,8.06-12.92-1.91-4.38-3.67-8.88-6.12-12.96-4.02-6.71-3.15-10.69,4.93-12.99,2.43-.69,4.06-4.24,6.05-6.47-2.3-1.66-5.87-5.24-6.72-4.68-9.91,6.48-20.43,10.88-32.29,11.87-3.83,13.75-13.59,8.77-22.36,7.12-22.66-4.26-45.18-10.12-68.03-12.1-15.7-1.36-31.05-.98-44.9-9.87-1.33-.85-4.77-.34-5.82.82-1.1,1.22-1.35,4.47-.47,5.95,1.43,2.4,3.8,4.53,6.25,5.98,6.75,4.02,9.18,8.65,5.41,16.48-1.44,2.98-1.04,9.94.71,10.85,9.43,4.89,16.51,14.99,29.15,13.28,7.53-1.02,41.52,20.58,44.25,27.29.28.68.62,1.44.56,2.12-.95,10.48,2.29,18.57,14.07,23.5-7.29,2.94-14.91,6.1-19.76,3.68-12.71-6.33-25.96-6.78-39.39-8.31-5.98-.68-11.74-6.42-17.4-6.11-16.09.88-24.51-9.5-34.23-19.8,3.57-3.13,6.99-5.84,10.08-8.89,10.24-10.13,8.61-18.47-4.59-24.69-4.99-2.35-10.27-4.42-14.62-7.68-3.48-2.61-5.74-6.84-8.55-10.36,3.95-1.25,7.87-2.61,11.87-3.68,1.75-.47,3.93.17,5.43-.63,2.4-1.27,5.7-3.02,6.17-5.12.44-1.94-1.83-5.23-3.79-6.84-10.2-8.4-20.55-16.63-31.14-24.54-3.39-2.54-7.47-4.71-11.56-5.66-12.51-2.9-25.43-17.13-26.59-30.12-.45-5.01-2.58-10.08-8.07-6.59-9.39,5.97-13.42,2.16-17.89-5.99-2.55-4.66-8.02-7.61-11.37-11.95-6.87-8.9-13.09-18.3-19.78-27.35-7.33-9.92-14.89-19.68-22.9-30.24-.9,1,.13,0,.99-1.13,2.63-3.46,5.2-6.97,7.79-10.46-4.22.5-8.5,1.63-12.66,1.3-3.7-.29-9.71-1.35-10.48-3.55-2.98-8.53-6-17.68-5.87-26.56.31-22.24,2.33-44.45,3.67-66.68-17.7-.92-24.6,2.96-26.73,12.91-1.38,6.46-4.45,12.67-7.45,18.65-3.06,6.1-4.69,10.59,4.91,10.8,2.15.05,4.26,1.67,6.39,2.56-1.32,2.45-2.02,5.96-4.07,7.17-12.75,7.51-10.63,20.43-11.02,31.69-.24,6.88,6.6,9.34,12.11,5.28,7.97-5.86,11.09-1.35,14.26,4.79,3.87,7.5,8.2,14.82,11.36,22.62,5.01,12.33,17.58,19.17,20.19,34.14,3.76,21.56,20.75,35.77,36.77,49.54,9.44,8.12,20.45,14.89,28.23,24.36,10.6,12.91,23.57,23.64,31.34,39.57,4.66,9.56,17.62,15.02,26.69,22.51,2.37,1.96,5.42,4.41,5.95,7.07,1.56,7.93,2.02,16.07,3.11,25.92-9.83-2.64-20.8-3.47-29.47-8.37-16.89-9.54-33.67-19.97-48.32-32.56-19.58-16.83-44.69-27.68-57.61-52.06-1.9-3.59-6.64-5.65-10.01-8.48-2.5-2.1-5.57-3.88-7.23-6.53-6.47-10.26-13.06-20.53-18.38-31.4-2.21-4.5-3.62-13.85-1.52-15.27,10.92-7.38,10.11-15.08,4.08-24.71-1.19-1.89.31-5.32-.59-7.57-1.35-3.38-3.72-6.34-5.66-9.48-1.86,2.85-3.79,5.66-5.55,8.56-3.59,5.91-7.09,11.87-10.63,17.81-4.13-6.44-8.44-12.77-12.29-19.36-1.24-2.13-1.35-4.95-1.87-7.48-1.86-8.91-1.09-19.79-6.05-26.32-9.88-13.03-10.4-26.99-7.85-40.93,4.21-22.94-1.87-44.88-3.66-67.23-.11-1.44-2.07-2.9-3.42-4.05-7.5-6.37-7.37-12.95-2.78-21.5,3.42-6.37,7.24-15.32,5.29-21.29-6.91-21.15,2.92-37.45,14.94-51.28,6.66-7.67,20.19-9.2,30.31-14.15,2.66-1.3,6.35-6.61,5.81-7.36-4.14-5.72-.52-9,3.04-12.24,4.88-4.44,10.85-7.93,14.9-12.98,5.54-6.92,10.76-14.49,14.17-22.59,3.46-8.21-2.64-10.72-8.61-7.04-7.27,4.49-14.54,10.25-19.34,17.18-8.24,11.88-11.54,12.84-24.93.36,7.3-.8,13.05-1.42,18.81-2.05-2.5-3.75-5.25-5.31-8.19-5.85-9.81-1.79-12.77-7.07-7.81-15.67,4.38-7.6,8.59-15.81,14.84-21.64,4.12-3.84,11.68-4.17,17.79-5.65,5.48-1.32,11.25-1.56,16.61-3.2,6.12-1.87,11.92-4.77,17.86-7.22,1.81-2.99,4.26-6.44,7.38-7.24,18.15-4.62,29.82-17.04,39.97-32.48-9.63.29-18.74,2.21-27.93,3.57-3.84.57-8.41,1.13-11.68-.39-6.54-3.03-8.9-1.93-12.47,4.74-2.48,4.65-9.96,6.91-15.62,9.25-.76.32-5.87-7.44-5.68-7.61,8.23-7.03,16.19-14.77,25.55-19.95,10.39-5.76,22.27-8.75,33.2-13.63,14.37-6.41,27.97-17.39,42.78-19.19,14.79-1.8,21.76-11.18,27.1-19.8,11.72-18.94,28.57-24.77,48.54-27.57,8.97-1.26,18.16-3.31,26.37-6.96,7.67-3.41,13.55-4.34,18.91,3.21,1.65-5.33,3.13-10.1,4.6-14.87.58,1.06,1.16,2.11,1.73,3.17,6.91-1.06,13.81-2.15,20.72-3.18,1.45-.22,3.17-.78,4.34-.26,17,7.57,36.9-2.47,53.34,9.01,5.45,3.81,11.69,6.47,17.57,9.67,5.84-8.54,5.97-9.15,17.72-6.62,17.43,3.75,34.94,7.82,46.8,23.16,1.29,1.67,3.31,3.01,5.27,3.92,20.06,9.28,42.21,14.75,57.94,31.92.46.5,1.41.53,1.95.99,5.18,4.43,10.41,8.82,15.45,13.41,2.69,2.45,4.93,5.39,7.58,7.9,13.08,12.37,31.29,19.13,39.54,36.91,1.93,4.15,7.02,6.78,9.13,10.9,6.17,12.09,16.96,22,16.9,37.16-.02,4.44,2.68,8.98,4.5,13.31,4.67,11.12,11.32,21.74,13.93,33.3,3.63,16.1,4.39,32.85,6.2,49.34.56,5.11.28,10.3.86,15.41.87,7.64,5.48,11.6,12.94,9.49,5.12-1.44,9.72-4.81,14.45-7.49,5.02-2.85,9.6-6.95,14.96-8.62,7.75-2.41,11.81-6.94,13.02-14.63,1.94-12.38,4.14-24.73,5.84-37.14,3.73-27.22,5.53-54.54-3.98-80.95-3.85-10.7-10.19-20.26-4.51-32.38,1.22-2.61-.86-7.2-2.27-10.53-10.71-25.32-25.17-48.32-43.35-68.95-25.6-29.04-56.03-52.27-89.31-71.59-26.99-15.67-53.63-33.28-82.68-43.82-65.28-23.69-132.82-36.75-202.89-25.82-23.59,3.68-47.46,6.46-70.56,12.22-22.88,5.71-45.39,9.93-66.65,24.82-29.63,20.75-62.3,37.19-90.19,61.08-68.3,58.5-115.53,130.77-139.82,217.03-23.75,84.33-24.42,169.45-1.59,254.5,18.09,67.38,50.44,127.25,94.77,180.63,9.78,11.77,21.67,22,32.2,33.19,21.96,23.32,49.51,41.39,74.91,61.43,2.48,1.96,6.38,4.31,8.88,3.66,10.68-2.77,17.18,3.88,24.78,9.03,29.1,19.72,58.55,38.73,95.35,40.62,3.81.2,7.74,2.27,11.22,4.2,15.78,8.72,31.98,14.93,50.6,12.03,3.78-.59,7.97.86,11.87,1.8,35.03,8.5,70.34,11.94,106.32,7.35,57.68-7.35,112.68-23.34,162.76-53.15,45.25-26.93,92.55-51.41,122.2-98.48,10.49-16.66,25.42-30.52,38.29-45.68,5.43-6.4,11.55-12.18,9.69-22.26-.51-2.76,3.35-6.88,6.01-9.57,7.92-7.97,7.92-17.46-.89-24.64-1.78-1.45-4.78-1.41-7.21-2.05,9.5-4.97,17.38-5.69,19.85-9.73,7.2-11.74,13.26-24.46,17.77-37.48,3.42-9.86-1.42-14.12-12.2-13.51-10.31.58-12.69-2.35-9.55-12.13,1.01-3.15,2.02-6.52,3.94-9.1,13.61-18.32,17.67-38.11,8.99-60.55-4.03-.9-11.34.93-9.6-9.11.78-4.49-2.15-9.62-3.4-14.47-4.53,1.73-10.63,2.16-13.31,5.41-10.6,12.85-22.75,25.01-24.21,43.28-.27,3.35-3.56,6.98-6.35,9.49-7.66,6.89-7.5,12.03.8,17.24,2.79,1.75,4.94,4.52,7.39,6.83-2.72,2.71-5.15,5.82-8.25,7.99-2.32,1.63-5.71,1.66-8.23,3.08-11.96,6.76-24.67,14.4-25.71,29.2-1.36,19.37-15.34,31.73-34.48,27.52-3.07-.67-7.5-1.26-9.5.36-12.88,10.39-25.33,21.33-37.69,32.35-1.18,1.05-1.71,4.62-.86,5.7.98,1.25,4.25,1.98,5.77,1.28,4.96-2.27,9.37-5.84,14.41-7.85,3.67-1.46,9.47-3.03,11.65-1.26,2.42,1.96,3.68,8.61,2.19,11.59-10.92,21.89-27.7,37.93-51.01,46.1-2.41.84-7.08-2.56-9.65-5.06-2.19-2.13-2.79-5.85-4.21-8.81-3.35-6.99-1.73-12.04,5.56-15.17,4.73-2.03,9.69-3.8,13.94-6.61,4.07-2.69,6.15-6.29.65-10.48-10.85-8.27-31.48-11.65-17.46-33.14.32-.49-.42-1.67-.09-2.13,1.87-2.67,3.41-6,5.99-7.65,7.27-4.64,14.86-8.83,22.58-12.67,4.07-2.02,8.77-2.7,13.04-4.36,6.91-2.69,13.97-5.21,20.36-8.88,1.78-1.02,2.79-6.61,1.62-8.66-1.13-1.98-5.58-2.99-8.47-2.82-5.1.31-10.11,2.65-15.19,2.73-19.96.32-27.86,18.33-41.41,27.93-4.96,3.52-7.44,10.46-12.33,14.18-8.93,6.79-16.08,13.07-8.49,25.29,1.05,1.69,0,6.22-1.62,7.59-1.54,1.3-6.08,1.26-7.63-.1-6.15-5.37-11.14-3.09-16.9.61-15.5,9.95-31.15,19.68-46.98,29.11-4.3,2.56-9.31,4.66-14.22,5.33-8.98,1.23-18.17.96-27.2,1.94-2.37.26-4.49,2.83-6.72,4.33,1.71,2.13,3.03,4.87,5.21,6.26,5.89,3.76,12.15,6.94,18.25,10.37,6.1,3.42,7.66,7.53,2.34,13.14-6.32,6.67-12.75,13.29-18.42,20.5-1.97,2.5-3.56,7.68-2.29,9.93,6.47,11.5,21.45,10.83,27.63-.62,1.55-2.87,3.91-5.29,5.8-7.99,7.04-10.04,14.38-19.97,12.22-35.64,5.4,2.4,9.72,3.39,12.87,5.87,15.39,12.09,35.53,9.55,47.7,2.67,15.9-8.99,24.61,1.33,36.67,2.33-7.97,7.33-15.93,18.07-24.28,18.37-13.05.47-23.63,3.11-34.99,9.26-12.86,6.96-27.65,10.69-36.21,23.76-4.72,7.21-9.95,10.74-19.1,9.82-5.35-.54-11.08,2.3-16.59,3.8-5.7,1.54-11.49,5.09-16.98,4.63-17.19-1.42-34.26-4.4-51.39-6.63-16.45-2.14-24.45-15.99-35.65-25.42-4.45-3.74-8.57-7.91-13.21-11.39-9.29-6.97-20.36-12.09-25.04-23.74,14.28-11.66,29.63-10.64,41.46,1.97,10.36,11.05,10.5,14.83,1.1,26.07-.38.45-.17,1.39-.52,5.21ZM534.45,638.7c4.49,2.3,7.52,3.49,10.16,5.26,33.74,22.62,67.84,18.64,99.56-2.29,45.51-30.03,59.51-76.36,60.72-128.3,1.12-48.13-20.71-83.45-60.34-108.27-60.82-38.09-153.93-23.92-200.97,31.82-33.5,39.69-43.02,85.37-20.73,133.96,5.34,11.63,17.01,20.7,26.81,29.81,5.31,4.94,12.38,4.33,17.4-2.33,5.91-7.85,6.21-23.66.98-32.2-9.67-15.81-15.54-32.82-12.47-51.52,10.56-64.42,64.95-102.05,129.19-89.15,30.83,6.19,54.05,22.99,61.71,54.6,3.74,15.4,4.19,32.27,2.66,48.14-2.8,29.03-11.07,56.84-33.91,77.08-7.09,6.28-16.79,11.39-26.04,13.13-28.6,5.41-46.6-19.83-37.34-50.07,6.15-20.07,12.44-40.23,16.41-60.79,4.59-23.77-15.85-44.86-36.51-37.8-9.71,3.32-19.65,10.86-25.6,19.24-12.37,17.45-12.86,37.72-7.75,58.39,1.81,7.31,3.21,15.58,1.66,22.73-7.09,32.78-15.27,65.32-23.11,97.93-6.44,26.79-9.32,53.76-3.62,81.04.73,3.51,3.57,6.58,5.43,9.85,2.81-2.12,6.12-3.8,8.34-6.42,22.08-26.01,33.18-57.03,40.62-89.73,1.76-7.72,4.25-15.26,6.75-24.12ZM343.8,828c-.6-1.06-1.75-3.7-3.44-5.94-9.39-12.4-18.77-24.83-28.54-36.92-1.8-2.22-5.41-2.97-8.19-4.4,0,3.53-.92,7.38.16,10.54,3.46,10.15,7.07,20.33,11.76,29.94,3.34,6.85,7.34,14.31,13.14,18.77,6.85,5.27,15.46-1.22,15.1-11.99ZM240.56,539.04c-12.27-1.64-22.65-2.21-29.95,6.16-2.26,2.59-.78,9.9,1.17,14.02.82,1.74,8.89,2.57,10.88.76,6.27-5.71,11.22-12.86,17.9-20.93ZM841.8,644.72c1.08.95,2.16,1.91,3.25,2.86,4.48-5.52,11.66-10.56,12.77-16.69,1.36-7.56-2.34-16.03-3.86-24.1-1.31.15-2.62.3-3.94.45-2.74,12.5-5.48,24.99-8.22,37.49ZM898.74,670.27c-1.43-.13-2.86-.25-4.29-.38-3.36,6.46-6.95,12.82-9.79,19.49-.35.82,3.21,4.67,5.14,4.83,6.06.5,14.85-8.6,13.89-14.48-.55-3.34-3.23-6.32-4.95-9.47ZM231.39,480.9c.26,8.17,17.06,19.5,22.28,17.15,1.08-.49,2.54-2.38,2.29-3.09-.51-1.49-2.02-2.66-3.18-3.89-3.29-3.5-6.55-7.03-9.93-10.44-2.3-2.32-4.78-4.47-7.19-6.7-1.77,2.88-3.53,5.77-4.28,6.98ZM243.19,530.4c8.55-10.02-.63-15.12-2.28-21.39-.43-1.64-3.66-2.54-5.61-3.78-.99,2.48-3.47,5.64-2.71,7.31,2.64,5.77,6.41,11.03,10.59,17.86ZM943.43,597.26c12.94-1.73,15.98-8.69,8.74-22.27-3.34,8.51-5.83,14.87-8.74,22.27ZM272.46,757.67c-3.65-3.34-6.99-7.49-7.9-7.01-3.07,1.61-5.75,4.61-7.46,7.69-.39.7,3.92,5.72,5.73,5.53,2.87-.31,5.45-3.32,9.63-6.21ZM942.89,541.02c-1.87-.1-3.73-.19-5.6-.29v16.19c1.53.04,3.07.09,4.6.13l1-16.04ZM851.59,577.55c-9.67,9.51-9.61,12.86,0,19.91v-19.91ZM378.87,749.59c-7.03-12.53-12.77-14.72-19.25-7.44,6.09,2.35,11.89,4.59,19.25,7.44Z"/>
  <path class="cls-1" d="M544.89,900.45c.35-3.81.14-4.75.52-5.21,9.4-11.25,9.26-15.02-1.1-26.07-11.83-12.62-27.18-13.64-41.46-1.97,4.68,11.65,15.75,16.77,25.04,23.74,4.64,3.48,8.76,7.64,13.21,11.39,11.2,9.43,19.2,23.28,35.65,25.42,17.13,2.23,34.19,5.2,51.39,6.63,5.49.45,11.28-3.09,16.98-4.63,5.51-1.49,11.24-4.34,16.59-3.8,9.14.92,14.38-2.61,19.1-9.82,8.56-13.07,23.35-16.8,36.21-23.76,11.36-6.15,21.94-8.79,34.99-9.26,8.35-.3,16.31-11.04,24.28-18.37-12.06-1-20.77-11.32-36.67-2.33-12.17,6.88-32.31,9.42-47.7-2.67-3.16-2.48-7.48-3.48-12.87-5.87,2.16,15.66-5.18,25.6-12.22,35.64-1.89,2.7-4.25,5.12-5.8,7.99-6.18,11.44-21.16,12.12-27.63.62-1.27-2.25.33-7.43,2.29-9.93,5.67-7.21,12.1-13.83,18.42-20.5,5.32-5.61,3.76-9.72-2.34-13.14-6.1-3.43-12.36-6.6-18.25-10.37-2.18-1.39-3.5-4.14-5.21-6.26,2.23-1.51,4.35-4.08,6.72-4.33,9.03-.98,18.21-.71,27.2-1.94,4.91-.67,9.92-2.77,14.22-5.33,15.83-9.42,31.48-19.15,46.98-29.11,5.76-3.7,10.75-5.98,16.9-.61,1.55,1.36,6.1,1.39,7.63.1,1.63-1.37,2.67-5.9,1.62-7.59-7.59-12.22-.44-18.5,8.49-25.29,4.88-3.71,7.37-10.66,12.33-14.18,13.55-9.6,21.45-27.61,41.41-27.93,5.07-.08,10.09-2.42,15.19-2.73,2.89-.18,7.34.84,8.47,2.82,1.17,2.05.17,7.63-1.62,8.66-6.38,3.67-13.45,6.19-20.36,8.88-4.27,1.66-8.97,2.34-13.04,4.36-7.73,3.83-15.32,8.03-22.58,12.67-2.58,1.65-4.12,4.98-5.99,7.65-.32.46.41,1.65.09,2.13-14.02,21.49,6.61,24.87,17.46,33.14,5.5,4.19,3.42,7.79-.65,10.48-4.25,2.81-9.21,4.58-13.94,6.61-7.29,3.13-8.91,8.18-5.56,15.17,1.42,2.96,2.03,6.68,4.21,8.81,2.57,2.51,7.24,5.91,9.65,5.06,23.31-8.17,40.09-24.21,51.01-46.1,1.49-2.98.23-9.63-2.19-11.59-2.18-1.77-7.99-.2-11.65,1.26-5.04,2-9.44,5.57-14.41,7.85-1.52.7-4.8-.03-5.77-1.28-.85-1.08-.32-4.65.86-5.7,12.36-11.02,24.81-21.96,37.69-32.35,2-1.61,6.44-1.03,9.5-.36,19.14,4.21,33.12-8.15,34.48-27.52,1.04-14.8,13.74-22.44,25.71-29.2,2.53-1.43,5.91-1.45,8.23-3.08,3.09-2.17,5.53-5.28,8.25-7.99-2.44-2.31-4.6-5.08-7.39-6.83-8.3-5.21-8.46-10.36-.8-17.24,2.79-2.51,6.09-6.14,6.35-9.49,1.47-18.27,13.61-30.43,24.21-43.28,2.68-3.25,8.78-3.68,13.31-5.41,1.25,4.84,4.18,9.98,3.4,14.47-1.75,10.04,5.57,8.21,9.6,9.11,8.69,22.44,4.62,42.23-8.99,60.55-1.92,2.59-2.94,5.96-3.94,9.1-3.14,9.79-.76,12.72,9.55,12.13,10.78-.61,15.62,3.65,12.2,13.51-4.52,13.02-10.58,25.74-17.77,37.48-2.47,4.03-10.35,4.75-19.85,9.73,2.44.64,5.43.6,7.21,2.05,8.81,7.18,8.81,16.67.89,24.64-2.67,2.69-6.53,6.81-6.01,9.57,1.87,10.08-4.25,15.86-9.69,22.26-12.87,15.16-27.8,29.02-38.29,45.68-29.65,47.07-76.95,71.54-122.2,98.48-50.09,29.81-105.09,45.8-162.76,53.15-35.98,4.59-71.29,1.14-106.32-7.35-3.9-.95-8.09-2.39-11.87-1.8-18.62,2.91-34.82-3.31-50.6-12.03-3.48-1.92-7.4-4-11.22-4.2-36.8-1.89-66.24-20.9-95.35-40.62-7.6-5.15-14.1-11.8-24.78-9.03-2.51.65-6.4-1.71-8.88-3.66-25.4-20.04-52.95-38.11-74.91-61.43-10.54-11.19-22.43-21.42-32.2-33.19-44.33-53.38-76.68-113.25-94.77-180.63-22.83-85.06-22.16-170.17,1.59-254.5,24.29-86.26,71.53-158.53,139.82-217.03,27.89-23.89,60.56-40.33,90.19-61.08,21.26-14.89,43.78-19.12,66.65-24.82,23.1-5.76,46.97-8.54,70.56-12.22,70.08-10.93,137.61,2.13,202.89,25.82,29.05,10.54,55.69,28.15,82.68,43.82,33.27,19.31,63.7,42.54,89.31,71.59,18.18,20.62,32.64,43.63,43.35,68.95,1.41,3.32,3.49,7.92,2.27,10.53-5.67,12.12.66,21.68,4.51,32.38,9.51,26.41,7.71,53.73,3.98,80.95-1.7,12.41-3.9,24.76-5.84,37.14-1.21,7.69-5.28,12.22-13.02,14.63-5.36,1.67-9.94,5.77-14.96,8.62-4.73,2.68-9.33,6.05-14.45,7.49-7.47,2.11-12.08-1.86-12.94-9.49-.58-5.1-.3-10.3-.86-15.41-1.81-16.49-2.56-33.25-6.2-49.34-2.61-11.56-9.25-22.19-13.93-33.3-1.82-4.34-4.52-8.88-4.5-13.31.07-15.16-10.73-25.07-16.9-37.16-2.1-4.12-7.2-6.75-9.13-10.9-8.25-17.77-26.46-24.53-39.54-36.91-2.65-2.5-4.89-5.45-7.58-7.9-5.04-4.59-10.27-8.98-15.45-13.41-.54-.46-1.49-.49-1.95-.99-15.73-17.17-37.87-22.64-57.94-31.92-1.95-.9-3.97-2.24-5.27-3.92-11.86-15.34-29.37-19.41-46.8-23.16-11.75-2.53-11.88-1.92-17.72,6.62-5.88-3.19-12.12-5.86-17.57-9.67-16.43-11.48-36.34-1.44-53.34-9.01-1.18-.53-2.9.04-4.34.26-6.91,1.03-13.81,2.11-20.72,3.18-.58-1.06-1.16-2.11-1.73-3.17-1.48,4.77-2.95,9.54-4.6,14.87-5.37-7.55-11.25-6.62-18.91-3.21-8.21,3.66-17.4,5.7-26.37,6.96-19.96,2.8-36.82,8.63-48.54,27.57-5.33,8.62-12.31,18.01-27.1,19.8-14.81,1.8-28.41,12.77-42.78,19.19-10.93,4.88-22.8,7.88-33.2,13.63-9.36,5.18-17.32,12.93-25.55,19.95-.19.17,4.92,7.92,5.68,7.61,5.65-2.34,13.13-4.6,15.62-9.25,3.56-6.67,5.92-7.78,12.47-4.74,3.27,1.52,7.84.96,11.68.39,9.19-1.36,18.31-3.28,27.93-3.57-10.15,15.44-21.82,27.85-39.97,32.48-3.12.8-5.57,4.24-7.38,7.24-5.94,2.45-11.74,5.35-17.86,7.22-5.36,1.64-11.13,1.88-16.61,3.2-6.12,1.48-13.67,1.81-17.79,5.65-6.25,5.83-10.46,14.04-14.84,21.64-4.96,8.6-2,13.88,7.81,15.67,2.94.54,5.7,2.1,8.19,5.85-5.76.63-11.52,1.26-18.81,2.05,13.39,12.49,16.69,11.53,24.93-.36,4.8-6.93,12.07-12.69,19.34-17.18,5.96-3.68,12.07-1.17,8.61,7.04-3.42,8.11-8.64,15.68-14.17,22.59-4.05,5.06-10.02,8.54-14.9,12.98-3.56,3.24-7.18,6.52-3.04,12.24.54.75-3.15,6.06-5.81,7.36-10.12,4.95-23.64,6.48-30.31,14.15-12.02,13.83-21.84,30.14-14.94,51.28,1.95,5.97-1.87,14.92-5.29,21.29-4.59,8.55-4.73,15.13,2.78,21.5,1.35,1.15,3.31,2.61,3.42,4.05,1.78,22.35,7.86,44.29,3.66,67.23-2.56,13.95-2.04,27.91,7.85,40.93,4.96,6.54,4.19,17.42,6.05,26.32.53,2.53.63,5.35,1.87,7.48,3.85,6.6,8.16,12.93,12.29,19.36,3.54-5.94,7.04-11.9,10.63-17.81,1.77-2.91,3.7-5.71,5.55-8.56,1.94,3.14,4.31,6.11,5.66,9.48.9,2.26-.6,5.68.59,7.57,6.03,9.63,6.84,17.33-4.08,24.71-2.1,1.42-.69,10.76,1.52,15.27,5.33,10.86,11.91,21.13,18.38,31.4,1.67,2.65,4.74,4.43,7.23,6.53,3.37,2.83,8.11,4.89,10.01,8.48,12.92,24.38,38.03,35.24,57.61,52.06,14.65,12.59,31.44,23.03,48.32,32.56,8.67,4.9,19.64,5.73,29.47,8.37-1.09-9.85-1.55-17.99-3.11-25.92-.52-2.66-3.57-5.11-5.95-7.07-9.07-7.5-22.03-12.96-26.69-22.51-7.77-15.93-20.73-26.66-31.34-39.57-7.77-9.46-18.78-16.24-28.23-24.36-16.02-13.78-33.01-27.98-36.77-49.54-2.61-14.97-15.18-21.8-20.19-34.14-3.16-7.79-7.49-15.11-11.36-22.62-3.17-6.15-6.29-10.66-14.26-4.79-5.51,4.06-12.35,1.59-12.11-5.28.39-11.26-1.73-24.18,11.02-31.69,2.05-1.21,2.75-4.72,4.07-7.17-2.13-.9-4.24-2.51-6.39-2.56-9.6-.2-7.97-4.7-4.91-10.8,3-5.98,6.07-12.19,7.45-18.65,2.13-9.96,9.03-13.84,26.73-12.91-1.34,22.22-3.36,44.44-3.67,66.68-.13,8.87,2.89,18.02,5.87,26.56.77,2.2,6.78,3.26,10.48,3.55,4.16.33,8.43-.8,12.66-1.3-2.59,3.49-5.16,7-7.79,10.46-.86,1.13-1.9,2.13-.99,1.13,8.02,10.57,15.57,20.32,22.9,30.24,6.69,9.05,12.91,18.45,19.78,27.35,3.35,4.34,8.82,7.29,11.37,11.95,4.46,8.15,8.5,11.96,17.89,5.99,5.49-3.49,7.62,1.57,8.07,6.59,1.16,12.99,14.08,27.22,26.59,30.12,4.09.95,8.16,3.13,11.56,5.66,10.59,7.91,20.94,16.14,31.14,24.54,1.96,1.62,4.23,4.9,3.79,6.84-.47,2.1-3.77,3.84-6.17,5.12-1.49.79-3.68.16-5.43.63-4,1.08-7.92,2.44-11.87,3.68,2.8,3.51,5.07,7.74,8.55,10.36,4.35,3.26,9.63,5.33,14.62,7.68,13.2,6.21,14.84,14.56,4.59,24.69-3.09,3.05-6.51,5.76-10.08,8.89,9.71,10.3,18.13,20.68,34.23,19.8,5.66-.31,11.42,5.43,17.4,6.11,13.43,1.53,26.68,1.97,39.39,8.31,4.85,2.42,12.48-.74,19.76-3.68-11.78-4.93-15.02-13.02-14.07-23.5.06-.69-.28-1.45-.56-2.12-2.73-6.71-36.72-28.3-44.25-27.29-12.65,1.71-19.72-8.39-29.15-13.28-1.75-.91-2.15-7.87-.71-10.85,3.77-7.83,1.33-12.46-5.41-16.48-2.44-1.46-4.82-3.58-6.25-5.98-.88-1.48-.63-4.73.47-5.95,1.04-1.16,4.49-1.68,5.82-.82,13.85,8.89,29.2,8.51,44.9,9.87,22.86,1.98,45.38,7.84,68.03,12.1,8.77,1.65,18.52,6.62,22.36-7.12,11.86-.99,22.39-5.38,32.29-11.87.85-.56,4.41,3.02,6.72,4.68-1.99,2.24-3.62,5.78-6.05,6.47-8.08,2.3-8.95,6.28-4.93,12.99,2.44,4.08,4.21,8.58,6.12,12.96,3.75,8.59,1.33,12.36-8.06,12.92-9.9.59-20.18-.18-29.6,2.29-9.25,2.43-17.6,8.25-26.4,12.46-2.62,1.25-5.42,2.12-9.46,3.67ZM711.84,822.03c-1.07-.28-2.15-.56-3.22-.84-1.29,2.89-2.44,5.86-3.91,8.66-1.74,3.3-3,7.85-5.81,9.37-5.69,3.08-8.59,7.6-4.81,12.1,2.16,2.57,9.22,2.87,13.29,1.63,11.3-3.44,22.06-8.59,33.27-12.37,11.2-3.78,17.3-11.39,17.98-24.9-2.92.36-5.75,1.15-8.5.93-2.84-.22-5.69-1.17-8.37-2.23-10.39-4.12-13.68-2.44-17.04,7.97-1.22,3.76-3.83,7.07-7.2,13.05-2.94-6.9-4.31-10.12-5.68-13.35ZM147.92,684.13c2.06-.47,4.12-.95,6.18-1.42-4.27-23.65-16.31-45.26-20.98-68.82-6.26,26.2,7.16,47.5,14.8,70.24ZM199.47,789.09c1.25-.58,2.49-1.16,3.74-1.74-5.4-12.9-10.61-25.89-16.46-38.59-.74-1.61-5.01-2.51-7.35-2.09-1.18.21-2.87,4.5-2.31,6.32,4.34,13.97,10.63,26.84,22.37,36.11ZM125.7,535.33c1.2.25,2.41.51,3.61.76,9.33-8.61,12.82-35.38,3.55-47.18-2.38,15.48-4.77,30.95-7.15,46.42ZM156.69,707.23c2.59-4.89,5.15-7.55,4.94-9.95-.22-2.45-3.16-4.67-4.91-6.98-2.16,2.4-5.56,4.57-6.06,7.27-.39,2.1,2.86,4.87,6.03,9.66Z"/>
  <path class="cls-1" d="M534.45,638.7c-2.5,8.85-4.99,16.4-6.75,24.12-7.44,32.7-18.54,63.71-40.62,89.73-2.22,2.62-5.53,4.3-8.34,6.42-1.86-3.27-4.7-6.34-5.43-9.85-5.69-27.28-2.82-54.25,3.62-81.04,7.84-32.61,16.02-65.16,23.11-97.93,1.55-7.15.15-15.41-1.66-22.73-5.11-20.67-4.62-40.94,7.75-58.39,5.95-8.38,15.89-15.92,25.6-19.24,20.66-7.07,41.1,14.02,36.51,37.8-3.97,20.56-10.26,40.72-16.41,60.79-9.26,30.24,8.74,55.47,37.34,50.07,9.24-1.75,18.95-6.85,26.04-13.13,22.85-20.24,31.11-48.05,33.91-77.08,1.53-15.87,1.08-32.74-2.66-48.14-7.66-31.6-30.88-48.4-61.71-54.6-64.24-12.91-118.63,24.72-129.19,89.15-3.07,18.7,2.8,35.72,12.47,51.52,5.23,8.55,4.93,24.35-.98,32.2-5.02,6.67-12.09,7.27-17.4,2.33-9.81-9.12-21.48-18.18-26.81-29.81-22.28-48.59-12.77-94.27,20.73-133.96,47.04-55.74,140.15-69.91,200.97-31.82,39.63,24.82,61.46,60.14,60.34,108.27-1.21,51.95-15.21,98.27-60.72,128.3-31.72,20.93-65.82,24.91-99.56,2.29-2.64-1.77-5.67-2.96-10.16-5.26Z"/>
  <path class="cls-1" d="M343.8,828c.36,10.77-8.26,17.26-15.1,11.99-5.8-4.46-9.8-11.92-13.14-18.77-4.69-9.62-8.3-19.79-11.76-29.94-1.08-3.17-.16-7.01-.16-10.54,2.78,1.43,6.39,2.18,8.19,4.4,9.78,12.1,19.15,24.52,28.54,36.92,1.69,2.23,2.84,4.88,3.44,5.94Z"/>
  <path class="cls-1" d="M240.56,539.04c-6.68,8.07-11.63,15.23-17.9,20.93-1.99,1.81-10.06.98-10.88-.76-1.95-4.12-3.43-11.43-1.17-14.02,7.3-8.37,17.68-7.8,29.95-6.16Z"/>
  <path class="cls-1" d="M841.8,644.72c2.74-12.5,5.48-24.99,8.22-37.49,1.31-.15,2.62-.3,3.94-.45,1.52,8.07,5.22,16.54,3.86,24.1-1.1,6.13-8.28,11.17-12.77,16.69-1.08-.95-2.16-1.91-3.25-2.86Z"/>
  <path class="cls-1" d="M898.74,670.27c1.72,3.14,4.4,6.13,4.95,9.47.96,5.88-7.83,14.98-13.89,14.48-1.93-.16-5.49-4.01-5.14-4.83,2.84-6.68,6.43-13.04,9.79-19.49,1.43.13,2.86.25,4.29.38Z"/>
  <path class="cls-1" d="M231.39,480.9c.74-1.21,2.51-4.1,4.28-6.98,2.4,2.23,4.88,4.37,7.19,6.7,3.38,3.41,6.65,6.94,9.93,10.44,1.16,1.24,2.66,2.41,3.18,3.89.25.72-1.21,2.61-2.29,3.09-5.22,2.35-22.03-8.97-22.28-17.15Z"/>
  <path class="cls-1" d="M243.19,530.4c-4.18-6.83-7.95-12.08-10.59-17.86-.77-1.67,1.71-4.83,2.71-7.31,1.95,1.24,5.18,2.14,5.61,3.78,1.65,6.27,10.83,11.37,2.28,21.39Z"/>
  <path class="cls-1" d="M943.43,597.26c2.91-7.41,5.4-13.76,8.74-22.27,7.24,13.59,4.2,20.54-8.74,22.27Z"/>
  <path class="cls-1" d="M272.46,757.67c-4.18,2.89-6.76,5.91-9.63,6.21-1.81.19-6.12-4.83-5.73-5.53,1.71-3.09,4.39-6.08,7.46-7.69.91-.48,4.25,3.67,7.9,7.01Z"/>
  <path class="cls-1" d="M942.89,541.02l-1,16.04c-1.53-.04-3.07-.09-4.6-.13v-16.19c1.87.1,3.73.19,5.6.29Z"/>
  <path class="cls-1" d="M851.59,577.55v19.91c-9.61-7.05-9.67-10.4,0-19.91Z"/>
  <path class="cls-1" d="M378.87,749.59c-7.35-2.84-13.15-5.08-19.25-7.44,6.48-7.29,12.21-5.09,19.25,7.44Z"/>
  <path class="cls-2" d="M711.84,822.03c1.37,3.22,2.75,6.45,5.68,13.35,3.37-5.98,5.98-9.28,7.2-13.05,3.36-10.41,6.65-12.09,17.04-7.97,2.68,1.06,5.53,2.01,8.37,2.23,2.75.22,5.58-.57,8.5-.93-.69,13.51-6.79,21.12-17.98,24.9-11.21,3.78-21.97,8.93-33.27,12.37-4.07,1.24-11.13.94-13.29-1.63-3.78-4.5-.88-9.02,4.81-12.1,2.81-1.52,4.08-6.07,5.81-9.37,1.47-2.8,2.62-5.77,3.91-8.66,1.07.28,2.15.56,3.22.84Z"/>
  <path class="cls-2" d="M147.92,684.13c-7.64-22.74-21.06-44.04-14.8-70.24,4.67,23.56,16.7,45.17,20.98,68.82-2.06.47-4.12.95-6.18,1.42Z"/>
  <path class="cls-2" d="M199.47,789.09c-11.74-9.27-18.03-22.14-22.37-36.11-.56-1.82,1.13-6.11,2.31-6.32,2.34-.42,6.61.48,7.35,2.09,5.85,12.69,11.05,25.69,16.46,38.59-1.25.58-2.49,1.16-3.74,1.74Z"/>
  <path class="cls-2" d="M125.7,535.33c2.38-15.48,4.77-30.95,7.15-46.42,9.27,11.8,5.78,38.58-3.55,47.18-1.2-.25-2.41-.51-3.61-.76Z"/>
  <path class="cls-2" d="M156.69,707.23c-3.17-4.8-6.42-7.57-6.03-9.66.5-2.71,3.91-4.87,6.06-7.27,1.75,2.32,4.7,4.53,4.91,6.98.21,2.41-2.35,5.06-4.94,9.95Z"/>
</svg>