<?xml version="1.0" encoding="UTF-8"?>
<svg id="Layer_1" data-name="Layer 1" xmlns="http://www.w3.org/2000/svg" version="1.1" viewBox="0 0 1080 1080">
  <defs>
    <style>
      .cls-1 {
        fill: #000;
      }

      .cls-1, .cls-2 {
        stroke-width: 0px;
      }

      .cls-2 {
        fill: #fff;
      }
    </style>
  </defs>
  <path class="cls-2" d="M1063.5,1045.53c-349.17,0-698.33,0-1047.5,0,0-337.17,0-674.35,0-1011.52,349.17,0,698.33,0,1047.5,0,0,337.17,0,674.35,0,1011.53ZM604.63,209.72c-.29-9.88,5.62-9.79,12.64-7.87,18.66,5.1,38.4,8.05,50.68,25.75.74,1.07,2.18,1.76,3.43,2.34,18.72,8.65,40.47,11.76,54.17,29.61.19.25.66.26.93.48,11.07,9.19,22.67,17.85,32.95,27.86,4.32,4.2,6.91,9.27,14.07,8.9,1.83-.09,4.35,2.28,5.62,4.15,10.96,16.06,21.77,32.22,32.44,48.48,1.47,2.25,2.98,5.32,2.64,7.76-1.48,10.71,5.06,18.48,8.51,27.56,6.2,16.33,11.38,33.22,14.91,50.31,2.12,10.28-.04,21.38.34,32.09.36,9.87,5.62,13.31,14.82,9.54,4.01-1.65,7.1-5.41,10.83-7.89,3.61-2.4,7.32-5.72,11.31-6.27,8.09-1.12,12.21-5.56,13.07-12.87,2.98-25.47,7.04-50.95,7.65-76.51.33-13.91-4.51-28.27-8.86-41.84-2.49-7.76-7.17-14.23-1.75-22.59,1.36-2.1.72-6.44-.46-9.1-4.86-10.91-9.58-21.98-15.63-32.24-34.43-58.42-90.43-92.4-146.13-125.96-29.22-17.6-61.85-28.31-95.5-35.49-42.12-8.99-84.16-16.07-127.59-10.76-32.45,3.97-64.82,7.88-96.3,17.11-15.46,4.53-33.03,4.14-43.96,19.15-.74,1.02-2.44,1.33-3.67,2.01-11.68,6.46-23.6,12.51-34.99,19.45-49.65,30.25-90.38,70.19-123.79,117.41-30.53,43.15-52.37,90.51-64.56,142.19-15.07,63.9-17.64,128.11-5.15,192.65,14.1,72.84,44.98,138.11,90.56,196.44,6.72,8.6,12.87,18.69,25.66,20.61,2.33.35,4.41,4.66,5.95,7.5,2.86,5.28,3.86,12.47,8.06,15.96,22.41,18.64,45.46,36.51,68.58,54.27,2.97,2.28,7.66,2.3,11.54,3.43,5.08,1.48,10.96,1.86,15.07,4.74,21.93,15.41,43.72,32.44,70.07,37.77,21.14,4.27,40.46,12.44,60.7,18.49,13.72,4.11,28.85,3.4,43.29,5.29,13.24,1.73,26.34,5.17,39.62,5.92,82.9,4.69,158.96-18.18,228.61-61.51,38.47-23.93,77.94-47.62,102.09-88.97,7.32-12.53,19.04-22.46,28.45-33.82,6.18-7.47,13.53-14.5,11.42-25.95-.36-1.97,2.11-5.1,4.07-6.75,10.53-8.86,10.35-15.86-.64-23.39-2.04-1.4-3.23-4.04-4.81-6.11,2.58-1.27,5.64-4.14,7.66-3.53,8.49,2.55,12.64-2.13,15.98-8.37,3.98-7.43,8.24-14.81,11.2-22.66,5.25-13.96,1.6-18.4-13.11-17.32-8.69.64-11.62-2.44-8.23-10.41,4.24-9.99,10.56-19.14,14.44-29.24,2.64-6.87,3.37-14.74,3.55-22.2.12-5.12-2.18-10.3-3.44-15.66-12.04-.37-13.42-2.39-9.73-12.99,1.04-2.98-.26-6.78-.48-10.2-3.73.71-9.14.1-10.9,2.35-10.58,13.52-24.16,25.52-24.78,44.78-.09,2.68-3.39,5.29-5.31,7.85-1.68,2.26-5.05,4.57-4.86,6.58.23,2.34,3.49,4.42,5.49,6.56,2.2,2.33,6.57,4.94,6.26,6.81-.61,3.64-3.34,7.35-6.13,10.05-1.76,1.71-5.25,1.62-7.93,2.42-13.55,4.01-27.94,19.92-25.44,29.61,2.24,8.7-1.71,13.74-7.82,17.69-7.74,5-13.91,14.97-26.01,8.24-2.91-1.62-9.05-.52-12.03,1.63-9.36,6.78-18.08,14.49-26.71,22.2-3.3,2.95-5.7,6.89-8.5,10.38.96,1.01,1.92,2.02,2.89,3.04,5.28-3.54,10.28-7.66,15.95-10.41,3.79-1.84,10.76-3.78,12.34-2.05,2.91,3.17,5.4,10.37,3.7,13.55-11.23,20.96-26.87,37.91-50.11,45.74-3.32,1.12-9.79-.5-11.65-3.1-3.04-4.27-4.81-10.43-4.62-15.71.15-4.01,3.51-8.56,6.66-11.61,2.58-2.5,7.14-2.83,10.48-4.72,2.18-1.23,3.76-3.54,5.62-5.36-2.12-1.27-4.54-2.21-6.3-3.85-6.67-6.22-13.26-12.54-19.49-19.19-.75-.8.97-3.81,1.4-5.82.76-3.59,1.41-7.2,2.11-10.81-3.36,1.34-6.85,2.43-10.04,4.11-2.13,1.12-4.12,2.82-5.67,4.68-4.73,5.66-4.19,10.86,2.08,15.07,1.83,1.23,3.88,2.14,6.7,3.67-7.28,6.76-13.01,12.93-22.13,4.09-1.47-1.42-6.69-.54-9.19.94-15.12,8.93-30,18.27-44.86,27.62-7.2,4.53-13.74,7.76-23.42,5.87-7.73-1.5-16.54,2.54-24.88,4.12l-.02,3.2c7.33,4.01,14.75,7.84,21.95,12.07,6.84,4.02,9.99,8.73,2.67,15.64-6.36,6-12.44,12.37-17.97,19.13-1.6,1.95-2.25,6.81-.95,8.64,6.54,9.26,17.84,7.87,22.51-2.11,1.31-2.79,3.75-5.03,5.33-7.72,5.09-8.65,13.33-16.13,9.96-28.03-.32-1.13,3.97-5.2,5.82-5.01,6.14.64,7.75-2.39,9.35-7.4,1.07-3.36,4.34-5.97,6.43-9.06,1.55-2.28,2.62-4.9,4.2-7.15,2.19-3.12,4.66-6.04,7.01-9.05,2.19,2.45,4.39,4.89,6.58,7.34.81.91,1.62,1.81,2.43,2.71,1.09-.89,1.87-1.22,2.11-1.79.69-1.6,1.22-3.27,1.7-4.94,3.87-13.49,7.72-14.99,20.25-9.22,2.94,1.35,7.25.7,10.63-.19,2.99-.78,5.55-3.17,8.3-4.85.87.77,1.74,1.53,2.61,2.3-5,8.59-8.55,18.67-15.42,25.33-6.18,6-15.82,8.67-24.23,12.06-9.01,3.63-18.37,6.39-27.58,9.52.26,1.23.52,2.45.78,3.68,5.01,0,10.03.24,15.02-.09,3.03-.2,7.17-2.87,8.8-1.68,10.25,7.46,16.76.26,24.24-4.85,2.49-1.7,8.24-3.17,8.94-2.2,4.79,6.68,11.27,5.97,18.01,5.9,1.91-.02,3.85,2.03,6.36,3.46-9.62,7.6-18.19,14.61-27.09,21.18-1.68,1.24-5.01,1.58-7.01.82-8.33-3.18-15.92-6.01-20.46,5.59-.63,1.62-6.11.8-8.62,2.32-10.13,6.12-20.94,11.65-29.6,19.49-6.53,5.91-10.64,13.04-21.43,11.74-5.29-.64-11.09,2.88-16.65,4.53-4.71,1.4-9.59,4.42-14.09,3.93-18.82-2.06-37.61-4.75-56.24-8.16-5.09-.93-10.27-4.41-14.18-8.04-7.64-7.09-14.3-15.22-21.66-22.64-1.23-1.24-3.96-.86-5.86-1.6-2.2-.85-4.78-1.62-6.25-3.27-8.78-9.87-17.3-19.75-31.17-22.97-3.52-.82-6.4-4.35-10.23-7.11,6.76-5.83,12.08-4.73,16.28-.22,4.34,4.67,8.64,4.89,12.78,1.06,6.59-6.11,13.97-6.15,20.25-1.51,8.21,6.06,15.02,13.99,22.77,20.71,3.23,2.8,7.58,6.77,11.02,6.41,14.51-1.53,28.93-4.22,43.23-7.2,2.34-.49,6.07-5.31,5.52-6.8-2.99-8.16-6.33-16.42-11.06-23.65-4.44-6.8-15.27-4.99-19.93,1.29-2.2,2.96-7.06,5.56-10.68,5.51-6.2-.1-12.32-2.64-18.55-3.74-17.13-3.03-34.21-6.8-51.48-8.47-16.94-1.63-34.36.29-49.13-10.94-.65-.5-2.8.96-5.65,2.04,2.96,2.7,4.65,5.04,6.93,6.18,8.82,4.4,12.03,9.73,6.16,19.27-1.26,2.05,1.49,9.15,4.17,10.56,8.78,4.64,16.21,13.66,28.43,9.72,2.58-.83,6.9,2.71,10.04,4.81,5.76,3.85,10.86,8.81,16.92,12.05,7.84,4.2,12.39,9.37,12.76,18.79.13,3.35,4.25,6.76,7.01,9.71,2.1,2.24,4.94,3.78,7.45,5.63-2.76,2.45-5.12,6.01-8.34,7.14-8.4,2.93-16.53,1.74-23.86-3.99-2.63-2.06-6.76-5.18-8.92-4.37-17.49,6.55-31.38-8.44-47.95-7.55-3.47.19-7.1-5.16-10.89-7.6-4.65-2.99-9.48-7.85-14.33-7.98-21.7-.57-41.38-6.76-57.52-20.87-25.7-22.46-56.03-38.78-78.5-66.04-11.68-14.17-22.8-28.57-33.17-43.64-2.53-3.68-4.28-8.16-5.28-12.52-.63-2.73-.04-8.01,1.43-8.61,11.46-4.66,11.26-11.19,4.88-20.1-1.37-1.92-.06-5.57-.69-8.26-.67-2.87-2.17-5.54-3.3-8.3-4.1,6.92-5.45,13.48-8.02,19.53-1.35,3.17-4.63,7.29-7.4,7.58-2.67.29-7.52-3.24-8.43-6.06-4.31-13.26-7.64-26.84-11.18-40.34-.58-2.22.32-6.11-.81-6.72-11.64-6.28-9.18-17.33-9.14-27.1.06-14.76,2.65-29.63,1.45-44.23-.98-11.99-4.22-24.51-9.62-35.21-4.38-8.68-5.61-14.71-.4-23.12,3.22-5.2,6.47-13.16,4.71-18.11-4.41-12.4.39-22.42,3.46-33.59,3.44-12.52,8.5-21.93,22.57-23.55.32-.04.68-.27.9-.52,5.17-5.83,11.3-8.96,19.39-7.58.96.16,2.32-1.99,3.72-3.27-2.43-2.63-4.34-4.69-6.27-6.78,33.8-28.04,36.49-31.66,34.92-47.66-12.15,1.48-17.32,11.13-22.95,19.54-4.91,7.34-8.37,12.73-18.97,6.9-6.43-3.53-12.31-3.89-5.94-12.36.65-.86.15-2.69-.02-4.04-2.37-17.8,8.4-36.44,24.96-42.84,2.19-.84,4.84-1.41,7.08-1.01,13.47,2.36,17.96.21,25.28-11.4,1.53-2.42,5.42-5.41,7.63-4.99,11.3,2.14,19.8-2.43,27.88-9.37,6.33-5.44,13.03-10.45,19.56-15.65-.97-1.31-1.93-2.61-2.9-3.92-13.86,2.2-27.72,4.4-39.39,6.25-7.68,4.89-13.88,10-21,12.73-2.56.99-7.32-3.74-11.07-5.86,2.01-2.96,3.49-6.57,6.13-8.78,9.69-8.09,18.6-15.73,32.54-18.85,16.15-3.61,30.65-14.54,45.94-22.16,5.01-2.5,10.36-6.72,15.33-6.43,15.63.9,18.95-13.16,27.25-20.83,5.1-4.71,6.96-14.78,12.41-16.86,11.5-4.39,24.46-4.83,36.71-7.4,12.16-2.55,28.55-1.95,35.2-9.59,8.52-9.8,13.71-6.71,22.51-4.99,7.82,1.53,16.28-.33,24.47-.51,3.5-.08,7.09.85,10.51.38,17.24-2.37,31.09,5.15,45.19,14.95ZM567.5,604.9h-.1c0-15.48,0-30.97,0-46.45,0-15.84-.03-31.67.07-47.51.08-11.8,2.29-14.05,14.29-14.28,10.91-.2,21.82-.09,32.73-.09,15.1,0,16.6-1.24,17.99-16.58,1.68-18.56,2.48-37.23,4.9-55.68,1.24-9.43-1.95-12.09-10.49-11.97-14.43.21-28.86-.24-43.29.09-9.07.21-12.89-3.55-12.41-12.59.39-7.37-.14-14.78.09-22.17.42-13.51,7.52-20.6,21.18-20.95,10.9-.27,21.83-.33,32.73.06,7.83.28,11.89-2.28,11.76-10.72-.25-16.89-.2-33.78-.01-50.67.08-7.05-2.85-10.27-10-10.37-18.64-.26-37.3-1.65-55.9-1.08-45.4,1.39-82.55,24.06-86.6,77.88-.95,12.6-1.31,25.26-1.63,37.9-.22,8.52-3.49,13.25-12.74,12.69-6.31-.38-12.67.02-19-.2-7.58-.26-10.76,3.02-10.58,10.74.37,15.83.16,31.67.25,47.51.17,27.92-3.93,26.32,25.77,26.26,15.48-.03,18,2.28,17.92,17.55-.3,60.87-.65,121.73-1.25,182.6-.09,9.42,3.3,13.41,12.97,13.19,19-.44,38.01-.16,57.01-.16,13.46,0,14.32-.78,14.34-14.2.05-30.27.02-60.53.02-90.8ZM315.9,648.79c-.67-1.27-1.34-2.54-2.01-3.81-2.98,1.5-5.83,3.75-8.98,4.3-3.48.61-9.95.62-10.43-.76-3.76-10.71-8.59-21.75-8.87-32.8-.5-19.31,2.02-38.7,3.48-61.21-10.25,4.37-20.15,2.59-21.15,13.44-.71,7.77-1.95,14.32-8.43,19.37-1.3,1.01-.92,4.18-1.52,7.43,4.95-.82,8.58-1.43,15.43-2.57-1.92,5.59-2.21,11.86-4.78,13-13.81,6.12-9.78,18.87-11.83,29.21-.34,1.7,2.44,4.9,4.51,5.89,1.25.6,4.85-1.18,5.76-2.8,4.7-8.43,8.18-4.39,11.11.98,3.53,6.47,6.09,13.48,9.8,19.84,3.88,6.65,7.32,15.69,13.32,18.37,6.36,2.83,7.62,5.49,7.95,11.1.22,3.8,1.06,7.62,2.02,11.33,5.08,19.62,20.44,31.36,34.14,44.41,11,10.48,21,22.17,32.87,31.5,10.33,8.12,16.75,18.12,23.64,28.89,5.96,9.32,16.75,15.77,26.02,22.66,5.66,4.2,8.63,8.02,7.46,15.67-.56,3.63,2.4,9.56,5.59,11.62,5.47,3.53,16.56-3.02,19.54-10.33,3.05-7.47-.33-11.75-6.98-15.1-7.49-3.77-14.82-7.99-21.71-12.75-2.02-1.39-3.55-5.61-2.96-7.93.42-1.64,4.71-2.73,7.43-3.25,3.73-.72,8.06.24,11.24-1.34,1.63-.81,2.78-7.3,1.65-8.24-10.46-8.7-21.37-16.87-32.39-24.88-2.41-1.75-5.67-2.96-8.64-3.21-12.73-1.05-15.4-15.05-25.47-19.43-.55-.24-.57-1.95-.66-2.99q-1.5-15.9-15.29-7.22c-.49.31-1.35.04-.87.04-7.78-9.04-15.37-17.17-22.14-25.93-5.93-7.67-10.55-16.35-16.46-24.03-5.95-7.74-12.28-15.34-19.41-21.96-4.16-3.87-5.34-6.15-.69-9.79,2.88-2.25,5.79-4.45,8.69-6.68ZM770.14,711.49c.79,1.72,1.57,3.44,2.36,5.16,6.13-2.19,13.76-2.81,18.06-6.92,7.57-7.24,14.87-11.14,25.73-11.09,4.89.02,9.99-6.28,14.58-10.2,1.04-.89,1.16-4.44.24-5.61-.94-1.19-3.82-1.56-5.62-1.2-5.48,1.1-10.88,4-16.27,3.93-19.76-.26-24.08,20.11-39.07,25.94ZM328.05,739.54c-1.28.66-2.56,1.33-3.83,1.99.33,2.15.27,4.46,1.06,6.43,4.07,10.11,8.04,20.28,12.69,30.13,2.88,6.09,6.2,12.34,10.81,17.06,1.7,1.74,9.88.65,11.15-1.49,1.81-3.05,1.14-8.83-.6-12.41-2.5-5.18-6.95-9.41-10.5-14.09-6.95-9.19-13.86-18.41-20.78-27.61ZM259.27,512.47c-.67-1.43-1.35-2.85-2.02-4.28-6.39,2.32-13.42,3.72-18.86,7.44-2.09,1.43-.58,8.14-.71,12.45,3.7-.5,8.49.27,10.86-1.77,4.33-3.73,7.23-9.13,10.72-13.83ZM839.89,611.12c16.24-15.33,16.62-17.4,7.76-35.55-2.52,11.53-4.82,22.11-7.76,35.55ZM880.14,653.8l3.36,3.3c3.53-2.58,8.13-4.49,10.27-7.93,1.79-2.87.72-7.53.91-11.4-3.18,1.77-7.08,2.9-9.35,5.46-2.51,2.83-3.52,6.99-5.19,10.57ZM263.04,448.34l-5.92,2.06c1.56,4.29,3.12,8.58,4.68,12.86,1.62-.96,4.74-2.19,4.62-2.84-.73-4.1-2.18-8.07-3.39-12.08ZM937.79,563.29c10.32-2.95,11.64-7.25,5.67-16.51-1.88,5.48-3.52,10.24-5.67,16.51ZM848.05,564.4v-17.01c-8.27,6.61-8.15,11,0,17.01ZM630.16,794.64c-4.45-3.02-6.4-5.31-8.53-5.48-1.57-.13-4.37,2.3-4.73,3.99-.28,1.33,2.17,4.44,3.71,4.65,2.14.3,4.55-1.36,9.56-3.16Z"/>
  <path class="cls-1" d="M604.63,209.72c-14.1-9.8-27.95-17.32-45.19-14.95-3.42.47-7.01-.46-10.51-.38-8.18.18-16.65,2.03-24.47.51-8.81-1.72-13.99-4.81-22.51,4.99-6.64,7.64-23.03,7.04-35.2,9.59-12.25,2.57-25.21,3.01-36.71,7.4-5.45,2.08-7.31,12.15-12.41,16.86-8.3,7.67-11.62,21.73-27.25,20.83-4.98-.29-10.32,3.94-15.33,6.43-15.28,7.62-29.78,18.55-45.94,22.16-13.94,3.11-22.84,10.76-32.54,18.85-2.64,2.21-4.12,5.81-6.13,8.78,3.75,2.12,8.51,6.84,11.07,5.86,7.11-2.74,13.31-7.85,21-12.73,11.67-1.85,25.53-4.05,39.39-6.25.97,1.31,1.93,2.61,2.9,3.92-6.53,5.2-13.23,10.21-19.56,15.65-8.08,6.95-16.57,11.51-27.88,9.37-2.21-.42-6.11,2.57-7.63,4.99-7.32,11.61-11.81,13.76-25.28,11.4-2.25-.39-4.9.17-7.08,1.01-16.56,6.4-27.33,25.05-24.96,42.84.18,1.35.67,3.18.02,4.04-6.37,8.48-.49,8.83,5.94,12.36,10.6,5.82,14.06.43,18.97-6.9,5.63-8.41,10.8-18.06,22.95-19.54,1.57,16-1.13,19.61-34.92,47.66,1.93,2.09,3.84,4.16,6.27,6.78-1.4,1.29-2.76,3.44-3.72,3.27-8.09-1.38-14.22,1.75-19.39,7.58-.22.25-.58.48-.9.52-14.07,1.62-19.13,11.03-22.57,23.55-3.07,11.17-7.87,21.19-3.46,33.59,1.76,4.95-1.49,12.91-4.71,18.11-5.21,8.41-3.98,14.44.4,23.12,5.4,10.69,8.64,23.21,9.62,35.21,1.2,14.6-1.39,29.47-1.45,44.23-.04,9.77-2.51,20.82,9.14,27.1,1.13.61.23,4.5.81,6.72,3.54,13.5,6.88,27.08,11.18,40.34.92,2.82,5.77,6.35,8.43,6.06,2.77-.3,6.05-4.41,7.4-7.58,2.57-6.05,3.92-12.61,8.02-19.53,1.14,2.76,2.63,5.43,3.3,8.3.63,2.69-.69,6.35.69,8.26,6.38,8.91,6.57,15.44-4.88,20.1-1.48.6-2.06,5.87-1.43,8.61,1.01,4.36,2.75,8.85,5.28,12.52,10.37,15.06,21.49,29.47,33.17,43.64,22.47,27.27,52.8,43.59,78.5,66.04,16.14,14.1,35.82,20.3,57.52,20.87,4.85.13,9.69,4.99,14.33,7.98,3.79,2.44,7.42,7.78,10.89,7.6,16.57-.89,30.46,14.1,47.95,7.55,2.16-.81,6.29,2.32,8.92,4.37,7.33,5.74,15.46,6.93,23.86,3.99,3.22-1.12,5.59-4.69,8.34-7.14-2.51-1.85-5.35-3.39-7.45-5.63-2.77-2.95-6.88-6.36-7.01-9.71-.37-9.41-4.92-14.59-12.76-18.79-6.05-3.24-11.16-8.2-16.92-12.05-3.14-2.1-7.46-5.65-10.04-4.81-12.22,3.95-19.65-5.08-28.43-9.72-2.68-1.42-5.43-8.52-4.17-10.56,5.87-9.53,2.66-14.87-6.16-19.27-2.29-1.14-3.97-3.48-6.93-6.18,2.85-1.08,4.99-2.54,5.65-2.04,14.77,11.22,32.19,9.31,49.13,10.94,17.27,1.67,34.35,5.44,51.48,8.47,6.23,1.1,12.35,3.64,18.55,3.74,3.61.06,8.48-2.54,10.68-5.51,4.66-6.28,15.49-8.09,19.93-1.29,4.73,7.24,8.07,15.49,11.06,23.65.55,1.49-3.19,6.32-5.52,6.8-14.3,2.98-28.72,5.67-43.23,7.2-3.44.36-7.8-3.61-11.02-6.41-7.76-6.72-14.56-14.65-22.77-20.71-6.28-4.64-13.67-4.6-20.25,1.51-4.14,3.84-8.44,3.61-12.78-1.06-4.2-4.51-9.52-5.61-16.28.22,3.83,2.76,6.72,6.29,10.23,7.11,13.86,3.22,22.39,13.09,31.17,22.97,1.47,1.65,4.05,2.42,6.25,3.27,1.9.74,4.63.36,5.86,1.6,7.35,7.42,14.02,15.55,21.66,22.64,3.91,3.63,9.09,7.11,14.18,8.04,18.63,3.41,37.41,6.11,56.24,8.16,4.5.49,9.38-2.53,14.09-3.93,5.57-1.65,11.36-5.17,16.65-4.53,10.8,1.3,14.91-5.83,21.43-11.74,8.66-7.84,19.48-13.37,29.6-19.49,2.51-1.52,7.99-.7,8.62-2.32,4.54-11.6,12.13-8.77,20.46-5.59,1.99.76,5.33.42,7.01-.82,8.9-6.57,17.47-13.58,27.09-21.18-2.51-1.43-4.44-3.48-6.36-3.46-6.74.07-13.22.78-18.01-5.9-.7-.98-6.46.5-8.94,2.2-7.48,5.12-13.99,12.31-24.24,4.85-1.64-1.19-5.78,1.48-8.8,1.68-4.99.32-10.01.09-15.02.09-.26-1.23-.52-2.45-.78-3.68,9.21-3.14,18.57-5.9,27.58-9.52,8.41-3.39,18.06-6.06,24.23-12.06,6.86-6.67,10.42-16.74,15.42-25.33-.87-.77-1.74-1.53-2.61-2.3-2.75,1.68-5.32,4.07-8.3,4.85-3.38.88-7.69,1.54-10.63.19-12.54-5.76-16.38-4.26-20.25,9.22-.48,1.67-1.01,3.35-1.7,4.94-.24.56-1.02.89-2.11,1.79-.81-.9-1.62-1.81-2.43-2.71-2.19-2.45-4.38-4.89-6.58-7.34-2.35,3.01-4.82,5.93-7.01,9.05-1.58,2.26-2.65,4.87-4.2,7.15-2.09,3.08-5.36,5.7-6.43,9.06-1.6,5.01-3.2,8.04-9.35,7.4-1.85-.19-6.14,3.88-5.82,5.01,3.36,11.9-4.88,19.38-9.96,28.03-1.58,2.69-4.03,4.93-5.33,7.72-4.67,9.98-15.97,11.37-22.51,2.11-1.3-1.84-.65-6.69.95-8.64,5.53-6.76,11.61-13.13,17.97-19.13,7.32-6.91,4.17-11.63-2.67-15.64-7.2-4.23-14.62-8.06-21.95-12.07l.02-3.2c8.33-1.58,17.14-5.63,24.88-4.12,9.68,1.88,16.22-1.34,23.42-5.87,14.86-9.35,29.74-18.69,44.86-27.62,2.5-1.48,7.73-2.36,9.19-.94,9.12,8.84,14.84,2.66,22.13-4.09-2.82-1.53-4.87-2.44-6.7-3.67-6.27-4.21-6.82-9.41-2.08-15.07,1.55-1.86,3.54-3.56,5.67-4.68,3.19-1.67,6.68-2.77,10.04-4.11-.7,3.6-1.35,7.22-2.11,10.81-.43,2.02-2.15,5.02-1.4,5.82,6.23,6.65,12.82,12.97,19.49,19.19,1.76,1.65,4.18,2.59,6.3,3.85-1.85,1.82-3.43,4.13-5.62,5.36-3.34,1.89-7.9,2.22-10.48,4.72-3.15,3.05-6.52,7.6-6.66,11.61-.19,5.27,1.57,11.44,4.62,15.71,1.85,2.6,8.32,4.22,11.65,3.1,23.25-7.83,38.88-24.78,50.11-45.74,1.7-3.18-.79-10.38-3.7-13.55-1.59-1.73-8.56.21-12.34,2.05-5.67,2.75-10.67,6.87-15.95,10.41-.96-1.01-1.92-2.02-2.89-3.04,2.81-3.49,5.21-7.44,8.5-10.38,8.64-7.72,17.35-15.42,26.71-22.2,2.98-2.16,9.11-3.25,12.03-1.63,12.11,6.73,18.27-3.25,26.01-8.24,6.11-3.95,10.06-8.99,7.82-17.69-2.5-9.69,11.88-25.6,25.44-29.61,2.69-.8,6.17-.71,7.93-2.42,2.79-2.71,5.52-6.41,6.13-10.05.31-1.86-4.07-4.48-6.26-6.81-2.01-2.13-5.27-4.21-5.49-6.56-.2-2.01,3.17-4.32,4.86-6.58,1.91-2.57,5.22-5.18,5.31-7.85.62-19.26,14.2-31.26,24.78-44.78,1.76-2.25,7.18-1.64,10.9-2.35.23,3.42,1.52,7.21.48,10.2-3.69,10.6-2.31,12.61,9.73,12.99,1.27,5.36,3.57,10.54,3.44,15.66-.18,7.46-.91,15.33-3.55,22.2-3.88,10.1-10.2,19.24-14.44,29.24-3.38,7.97-.46,11.05,8.23,10.41,14.71-1.09,18.36,3.36,13.11,17.32-2.96,7.85-7.22,15.23-11.2,22.66-3.34,6.24-7.49,10.91-15.98,8.37-2.02-.61-5.08,2.26-7.66,3.53,1.58,2.07,2.77,4.71,4.81,6.11,10.99,7.53,11.17,14.53.64,23.39-1.96,1.65-4.44,4.78-4.07,6.75,2.11,11.45-5.24,18.48-11.42,25.95-9.41,11.37-21.13,21.29-28.45,33.82-24.15,41.34-63.62,65.04-102.09,88.97-69.65,43.33-145.71,66.2-228.61,61.51-13.27-.75-26.37-4.19-39.62-5.92-14.44-1.89-29.57-1.18-43.29-5.29-20.24-6.06-39.56-14.22-60.7-18.49-26.35-5.33-48.14-22.36-70.07-37.77-4.11-2.89-9.99-3.26-15.07-4.74-3.88-1.13-8.57-1.15-11.54-3.43-23.12-17.75-46.18-35.63-68.58-54.27-4.19-3.49-5.19-10.69-8.06-15.96-1.54-2.84-3.62-7.15-5.95-7.5-12.79-1.92-18.94-12.01-25.66-20.61-45.57-58.32-76.46-123.6-90.56-196.44-12.49-64.54-9.92-128.75,5.15-192.65,12.19-51.68,34.03-99.05,64.56-142.19,33.4-47.22,74.14-87.15,123.79-117.41,11.39-6.94,23.31-13,34.99-19.45,1.23-.68,2.93-.99,3.67-2.01,10.93-15.01,28.5-14.62,43.96-19.15,31.48-9.23,63.85-13.13,96.3-17.11,43.43-5.32,85.47,1.76,127.59,10.76,33.65,7.18,66.28,17.89,95.5,35.49,55.7,33.55,111.7,67.53,146.13,125.96,6.05,10.26,10.76,21.33,15.63,32.24,1.18,2.66,1.83,7,.46,9.1-5.42,8.36-.74,14.83,1.75,22.59,4.35,13.57,9.19,27.93,8.86,41.84-.61,25.55-4.68,51.03-7.65,76.51-.85,7.31-4.98,11.75-13.07,12.87-3.99.55-7.7,3.87-11.31,6.27-3.73,2.48-6.82,6.24-10.83,7.89-9.2,3.78-14.47.34-14.82-9.54-.39-10.71,1.78-21.81-.34-32.09-3.52-17.09-8.71-33.99-14.91-50.31-3.45-9.08-9.99-16.85-8.51-27.56.34-2.44-1.17-5.51-2.64-7.76-10.67-16.26-21.48-32.42-32.44-48.48-1.28-1.87-3.8-4.25-5.62-4.15-7.16.37-9.75-4.7-14.07-8.9-10.28-10.01-21.88-18.66-32.95-27.86-.26-.22-.73-.23-.93-.48-13.7-17.85-35.45-20.96-54.17-29.61-1.25-.58-2.69-1.27-3.43-2.34-12.29-17.7-32.02-20.65-50.68-25.75-7.02-1.92-12.93-2.01-12.64,7.87ZM158.62,541.77c-2.03,5.13-3.49,7.03-3.38,8.83.97,16.65.49,33.63,3.79,49.83,4.3,21.15,11.34,41.79,18.03,62.38,1.08,3.32,6.47,5.24,9.86,7.8,1.73-3.12,5.37-6.64,4.81-9.27-1.24-5.78-5.22-10.91-6.99-16.65-9.18-29.69-20.81-58.84-19.92-90.81.09-3.18-3.2-6.46-6.2-12.11ZM249.23,772.52c-1-1.18-2-2.36-2.99-3.54-.98-1.82-1.92-3.65-2.93-5.45-5.79-10.3-11.92-20.42-17.28-30.93-3.97-7.8-6.33-16.47-10.69-24.02-1.53-2.65-6.85-3.1-10.44-4.56-.98,3.64-2.75,7.3-2.68,10.92.06,2.9,2.08,5.93,3.7,8.62,9.76,16.22,19.57,32.41,29.61,48.45,1.06,1.7,3.76,3.4,5.64,3.33,2.72-.1,5.38-1.8,8.07-2.82ZM156.78,513.6c3.63-3.31,6.22-4.51,6.47-6.08,2.57-16.06,4.85-32.17,6.86-48.31.15-1.22-2.47-2.78-3.81-4.18-1.95,2.1-5.17,3.96-5.62,6.35-2.53,13.39-4.61,26.87-6.33,40.39-.39,3.05,1.23,6.36,2.43,11.84ZM177.1,388.9c.38.92.76,1.84,1.14,2.75,2.5-.17,5.51.49,7.42-.67,7.13-4.31,14.43-19.91,13.17-27.2-7.32,8.45-14.53,16.78-21.74,25.11ZM414.36,222.8c-.62-.89-1.24-1.77-1.86-2.66-4.14,1.34-8.85,1.88-12.24,4.28-2.39,1.69-3,5.89-4.4,8.97,3.79.2,8.56,1.89,11.11.22,3.37-2.21,5.01-7.08,7.39-10.8ZM352.53,866.21c-.36-12.58-9.7-18.98-19.58-15.08,7.07,5.45,13.33,10.27,19.58,15.08ZM525.04,926.87c3.11-2.91,5.08-4.75,7.05-6.6-3-1.76-5.86-4.46-9.06-4.96-2.22-.34-4.91,2.34-7.39,3.67,2.84,2.38,5.68,4.76,9.4,7.88ZM167.78,529.49c-4.04-3.09-6.78-6.72-8.9-6.4-2.45.37-5.43,3.99-6.09,6.7-.38,1.54,3.55,5.93,5.29,5.8,2.76-.21,5.31-3.14,9.71-6.1Z"/>
  <path class="cls-1" d="M567.5,604.9c0,30.27.03,60.53-.02,90.8-.02,13.43-.88,14.2-14.34,14.2-19.01,0-38.02-.27-57.01.16-9.68.22-13.06-3.77-12.97-13.19.6-60.86.96-121.73,1.25-182.6.07-15.27-2.44-17.58-17.92-17.55-29.7.06-25.6,1.66-25.77-26.26-.09-15.84.12-31.68-.25-47.51-.18-7.72,3-11.01,10.58-10.74,6.33.22,12.69-.18,19,.2,9.25.56,12.52-4.17,12.74-12.69.32-12.64.68-25.3,1.63-37.9,4.06-53.82,41.21-76.49,86.6-77.88,18.6-.57,37.26.82,55.9,1.08,7.15.1,10.08,3.32,10,10.37-.18,16.89-.24,33.79.01,50.67.13,8.44-3.93,11-11.76,10.72-10.9-.38-21.82-.33-32.73-.06-13.66.34-20.75,7.44-21.18,20.95-.23,7.38.3,14.8-.09,22.17-.48,9.05,3.34,12.8,12.41,12.59,14.42-.33,28.86.11,43.29-.09,8.54-.12,11.73,2.53,10.49,11.97-2.42,18.46-3.22,37.12-4.9,55.68-1.39,15.34-2.89,16.58-17.99,16.58-10.91,0-21.82-.11-32.73.09-12,.22-14.21,2.48-14.29,14.28-.11,15.84-.06,31.67-.07,47.51,0,15.48,0,30.97,0,46.45h.1Z"/>
  <path class="cls-1" d="M315.9,648.79c-2.9,2.22-5.81,4.43-8.69,6.68-4.66,3.63-3.47,5.92.69,9.79,7.13,6.62,13.46,14.23,19.41,21.96,5.91,7.69,10.53,16.36,16.46,24.03,6.77,8.76,14.36,16.89,22.14,25.93-.48,0,.37.27.87-.04q13.8-8.68,15.29,7.22c.1,1.04.11,2.75.66,2.99,10.08,4.38,12.75,18.38,25.47,19.43,2.97.25,6.23,1.45,8.64,3.21,11.01,8.01,21.92,16.18,32.39,24.88,1.12.93-.02,7.43-1.65,8.24-3.18,1.57-7.51.62-11.24,1.34-2.72.52-7,1.61-7.43,3.25-.6,2.32.94,6.54,2.96,7.93,6.89,4.76,14.22,8.98,21.71,12.75,6.65,3.35,10.02,7.62,6.98,15.1-2.98,7.32-14.07,13.86-19.54,10.33-3.19-2.06-6.14-7.98-5.59-11.62,1.17-7.66-1.8-11.47-7.46-15.67-9.27-6.89-20.06-13.34-26.02-22.66-6.89-10.77-13.32-20.77-23.64-28.89-11.87-9.33-21.88-21.02-32.87-31.5-13.7-13.05-29.06-24.79-34.14-44.41-.96-3.71-1.8-7.52-2.02-11.33-.33-5.61-1.59-8.26-7.95-11.1-6-2.67-9.45-11.72-13.32-18.37-3.7-6.36-6.27-13.37-9.8-19.84-2.93-5.36-6.4-9.41-11.11-.98-.91,1.63-4.51,3.4-5.76,2.8-2.07-.99-4.85-4.18-4.51-5.89,2.05-10.33-1.98-23.09,11.83-29.21,2.57-1.14,2.86-7.41,4.78-13-6.85,1.14-10.48,1.74-15.43,2.57.59-3.25.21-6.42,1.52-7.43,6.49-5.05,7.72-11.59,8.43-19.37,1-10.85,10.9-9.08,21.15-13.44-1.46,22.52-3.98,41.9-3.48,61.21.28,11.05,5.12,22.1,8.87,32.8.48,1.37,6.95,1.37,10.43.76,3.15-.55,6-2.8,8.98-4.3.67,1.27,1.34,2.54,2.01,3.81ZM407.96,794.02c-1.1,1.55-2.21,3.11-3.31,4.66,3.85,2.4,7.71,4.79,11.56,7.19.89-1.34,1.78-2.67,2.68-4.01-3.64-2.61-7.29-5.22-10.93-7.83Z"/>
  <path class="cls-1" d="M770.14,711.49c14.99-5.82,19.3-26.2,39.07-25.94,5.4.07,10.79-2.83,16.27-3.93,1.81-.36,4.69.02,5.62,1.2.92,1.17.8,4.72-.24,5.61-4.59,3.92-9.69,10.22-14.58,10.2-10.86-.05-18.16,3.85-25.73,11.09-4.29,4.11-11.93,4.73-18.06,6.92-.79-1.72-1.57-3.44-2.36-5.16Z"/>
  <path class="cls-1" d="M328.05,739.54c6.92,9.21,13.83,18.43,20.78,27.61,3.55,4.69,7.99,8.92,10.5,14.09,1.73,3.58,2.4,9.36.6,12.41-1.27,2.14-9.45,3.24-11.15,1.49-4.61-4.73-7.93-10.97-10.81-17.06-4.65-9.85-8.62-20.02-12.69-30.13-.79-1.97-.73-4.28-1.06-6.43,1.28-.66,2.56-1.33,3.83-1.99Z"/>
  <path class="cls-1" d="M259.27,512.47c-3.5,4.7-6.39,10.1-10.72,13.83-2.37,2.04-7.16,1.27-10.86,1.77.13-4.31-1.38-11.02.71-12.45,5.44-3.72,12.46-5.12,18.86-7.44.67,1.43,1.35,2.85,2.02,4.28Z"/>
  <path class="cls-1" d="M839.89,611.12c2.93-13.44,5.24-24.02,7.76-35.55,8.86,18.15,8.49,20.22-7.76,35.55Z"/>
  <path class="cls-1" d="M880.14,653.8c1.67-3.58,2.68-7.73,5.19-10.57,2.27-2.57,6.17-3.7,9.35-5.46-.19,3.87.88,8.53-.91,11.4-2.15,3.44-6.74,5.36-10.27,7.93l-3.36-3.3Z"/>
  <path class="cls-1" d="M263.04,448.34c1.21,4.01,2.66,7.98,3.39,12.08.12.65-3,1.88-4.62,2.84-1.56-4.29-3.12-8.58-4.68-12.86l5.92-2.06Z"/>
  <path class="cls-1" d="M937.79,563.29c2.15-6.26,3.78-11.02,5.67-16.51,5.97,9.26,4.65,13.56-5.67,16.51Z"/>
  <path class="cls-1" d="M848.05,564.4c-8.15-6.02-8.27-10.4,0-17.01v17.01Z"/>
  <path class="cls-1" d="M630.16,794.64c-5.01,1.8-7.42,3.46-9.56,3.16-1.53-.22-3.99-3.33-3.71-4.65.36-1.69,3.16-4.11,4.73-3.99,2.13.17,4.09,2.46,8.53,5.48Z"/>
  <path class="cls-2" d="M158.62,541.77c3.01,5.65,6.29,8.93,6.2,12.11-.89,31.97,10.74,61.13,19.92,90.81,1.77,5.73,5.75,10.87,6.99,16.65.56,2.62-3.08,6.15-4.81,9.27-3.4-2.57-8.79-4.49-9.86-7.8-6.69-20.59-13.72-41.22-18.03-62.38-3.3-16.2-2.82-33.18-3.79-49.83-.1-1.8,1.35-3.7,3.38-8.83Z"/>
  <path class="cls-2" d="M249.23,772.52c-2.69,1.02-5.35,2.73-8.07,2.82-1.88.07-4.58-1.63-5.64-3.33-10.04-16.04-19.85-32.23-29.61-48.45-1.62-2.69-3.64-5.71-3.7-8.62-.07-3.62,1.7-7.28,2.68-10.92,3.59,1.46,8.92,1.91,10.44,4.56,4.35,7.55,6.71,16.21,10.69,24.02,5.35,10.52,11.49,20.63,17.28,30.93,1.01,1.8,1.96,3.63,2.93,5.45,1,1.18,2,2.36,2.99,3.54Z"/>
  <path class="cls-2" d="M156.78,513.6c-1.2-5.48-2.82-8.79-2.43-11.84,1.72-13.52,3.8-27,6.33-40.39.45-2.39,3.68-4.25,5.62-6.35,1.33,1.4,3.96,2.96,3.81,4.18-2,16.14-4.29,32.25-6.86,48.31-.25,1.57-2.84,2.76-6.47,6.08Z"/>
  <path class="cls-2" d="M177.1,388.9c7.21-8.33,14.42-16.66,21.74-25.11,1.25,7.29-6.05,22.89-13.17,27.2-1.91,1.16-4.92.49-7.42.67-.38-.92-.76-1.84-1.14-2.75Z"/>
  <path class="cls-2" d="M414.36,222.8c-2.38,3.72-4.02,8.58-7.39,10.8-2.56,1.68-7.33-.02-11.11-.22,1.4-3.08,2.02-7.28,4.4-8.97,3.4-2.4,8.1-2.94,12.24-4.28.62.89,1.24,1.77,1.86,2.66Z"/>
  <path class="cls-2" d="M352.53,866.21c-6.25-4.82-12.51-9.64-19.58-15.08,9.88-3.9,19.22,2.51,19.58,15.08Z"/>
  <path class="cls-2" d="M525.04,926.87c-3.73-3.12-6.56-5.5-9.4-7.88,2.48-1.33,5.17-4.02,7.39-3.67,3.2.5,6.06,3.2,9.06,4.96-1.97,1.84-3.94,3.69-7.05,6.6Z"/>
  <path class="cls-2" d="M167.78,529.49c-4.39,2.96-6.95,5.88-9.71,6.1-1.74.14-5.67-4.25-5.29-5.8.67-2.72,3.65-6.33,6.09-6.7,2.13-.32,4.86,3.31,8.9,6.4Z"/>
  <path class="cls-2" d="M407.96,794.02c3.64,2.61,7.29,5.22,10.93,7.83-.89,1.34-1.78,2.67-2.68,4.01-3.85-2.4-7.71-4.79-11.56-7.19,1.1-1.55,2.21-3.11,3.31-4.66Z"/>
</svg>